<svg version="1.1" id="Layer_1" xmlns="http://www.w3.org/2000/svg" xmlns:xlink="http://www.w3.org/1999/xlink" x="0px" y="0px"
	 width="100%" viewBox="0 0 1080 408" enable-background="new 0 0 1080 408" xml:space="preserve">
<path fill="#FEFEFE" opacity="1.000000" stroke="none" 
	d="
M698.000000,409.000000 
	C465.333344,409.000000 233.166672,409.000000 1.000000,409.000000 
	C1.000000,273.000000 1.000000,137.000000 1.000000,1.000000 
	C361.000000,1.000000 721.000000,1.000000 1081.000000,1.000000 
	C1081.000000,137.000000 1081.000000,273.000000 1081.000000,409.000000 
	C953.500000,409.000000 826.000000,409.000000 698.000000,409.000000 
M774.856140,325.070068 
	C776.439819,324.591461 778.023438,324.112854 779.726685,323.598083 
	C781.262390,327.196838 782.711670,330.724518 784.268921,334.203827 
	C785.696350,337.393097 785.724365,339.918060 781.779907,341.264923 
	C781.102661,341.496216 780.763367,342.717102 780.267944,343.480835 
	C781.223938,344.003632 782.375793,345.146210 783.094666,344.918945 
	C784.548035,344.459534 786.406006,343.549286 786.972656,342.310608 
	C789.661926,336.431244 792.035400,330.402588 794.338989,324.357635 
	C794.625244,323.606232 793.825378,322.440918 793.528748,321.467377 
	C792.661438,322.031769 791.409424,322.398254 790.998291,323.197388 
	C789.711060,325.699249 788.740967,328.364288 787.517273,331.277283 
	C785.637329,327.671539 784.760193,323.549011 782.266602,321.954773 
	C780.156616,320.605804 776.175476,322.183594 772.270935,322.557495 
	C769.385498,320.654846 767.666992,320.976593 767.736511,324.884247 
	C767.789429,327.857422 767.578247,330.851501 767.875305,333.796844 
	C768.010376,335.136597 769.090210,336.381073 769.741516,337.668732 
	C770.465393,336.387604 771.444275,335.183685 771.860352,333.809387 
	C772.732971,330.927429 773.309509,327.955811 774.856140,325.070068 
M206.099396,275.414490 
	C214.059433,283.421631 225.430176,283.044250 233.627304,274.058685 
	C235.716309,269.257446 238.087891,264.550262 239.735077,259.601959 
	C240.282761,257.956635 239.567322,254.961746 238.319885,253.944824 
	C237.339569,253.145691 234.424591,254.004623 232.761780,254.876251 
	C223.369781,259.799438 214.214310,260.379181 204.990158,254.426483 
	C203.708420,253.599350 201.265244,253.088104 200.225281,253.763458 
	C199.049759,254.526855 198.152435,256.886780 198.350388,258.392517 
	C199.157318,264.530060 200.846756,270.415070 206.099396,275.414490 
M267.287720,345.737671 
	C287.117126,339.749939 307.214233,337.259644 327.807007,341.035492 
	C330.085327,341.453247 332.406403,341.895935 334.706635,341.890503 
	C344.087677,341.868408 349.923553,335.126648 349.255463,324.634369 
	C349.261963,306.103577 349.268494,287.572754 349.925781,268.769135 
	C365.348785,263.981110 374.268890,252.424103 373.900726,236.210770 
	C373.503571,218.722229 364.648010,206.213882 349.275299,197.179504 
	C349.265839,188.853775 349.292023,180.527817 349.237122,172.202377 
	C349.180695,163.647369 346.670563,160.395920 338.173187,160.377151 
	C328.569061,160.355927 318.910370,161.081192 309.372528,162.264496 
	C301.091125,163.291931 299.746613,165.498993 299.748688,173.860535 
	C299.757599,209.494766 299.717346,245.129135 299.815857,280.763123 
	C299.829742,285.770142 297.813812,288.013702 292.898102,289.367279 
	C284.123322,291.783447 275.165009,294.263794 267.081543,298.311279 
	C248.986099,307.371857 234.710190,320.865540 224.301071,339.174866 
	C222.264542,343.522766 220.227997,347.870667 217.962219,351.488892 
	C204.070236,317.398071 178.958801,296.750549 143.031036,289.258545 
	C138.328232,288.277893 136.712341,285.922363 136.764481,281.352844 
	C136.918350,267.865936 136.840485,254.376312 136.838364,240.887756 
	C136.834793,218.073776 136.785690,195.259720 136.838684,172.445877 
	C136.849106,167.954254 135.394821,164.347046 130.876541,163.204926 
	C119.341377,160.289047 107.587280,159.015503 95.716911,160.389282 
	C89.200584,161.143448 86.897491,164.163467 86.844406,170.806244 
	C86.772552,179.796951 86.728447,188.787857 86.029121,197.964554 
	C83.463860,199.504715 80.689651,200.782150 78.367973,202.628601 
	C65.374840,212.962006 58.867195,226.227844 61.908230,242.940964 
	C64.439445,256.852234 72.789726,265.809570 86.841309,269.822174 
	C86.889221,272.214996 86.937141,274.607819 86.774078,277.918121 
	C86.852432,293.852081 86.930779,309.786041 86.797958,326.246033 
	C86.857941,337.505402 94.092346,343.717377 105.473427,341.556396 
	C138.550690,335.275879 169.528061,341.721222 198.253799,358.117493 
	C211.857437,365.882294 224.084839,367.753601 237.180710,358.530060 
	C237.710175,358.157196 238.392563,358.001495 239.419861,358.489014 
	C240.381760,364.967163 241.343658,371.445282 241.619888,377.589966 
	C239.630249,376.727081 237.627655,375.085144 235.652924,375.117981 
	C205.403152,375.621399 175.155182,376.275238 144.912140,377.092743 
	C140.721802,377.206024 136.560120,378.379578 132.385178,379.062286 
	C132.462875,379.775970 132.540588,380.489685 132.618286,381.203369 
	C189.942184,386.108307 247.253525,386.665619 304.622742,380.224579 
	C303.896881,378.964020 303.120575,378.207367 302.278229,378.124908 
	C297.497467,377.656799 292.690002,377.455231 287.912567,376.960876 
	C282.226929,376.372559 276.562408,375.579956 270.827484,374.073029 
	C269.386505,364.708740 267.945526,355.344452 267.287720,345.737671 
M134.668945,117.185997 
	C127.329315,127.450981 122.322792,138.592484 121.230919,151.657196 
	C149.986374,152.483292 175.072083,162.031616 197.601776,178.802490 
	C198.961807,179.814865 201.394791,179.964462 203.208649,179.698364 
	C219.894318,177.250595 234.296478,170.154449 245.995346,157.911591 
	C249.359360,154.391113 252.393692,150.555603 255.579193,146.864532 
	C255.999069,146.945282 256.418945,147.026047 256.838837,147.106796 
	C256.460876,153.440765 256.082916,159.774734 255.694092,166.291107 
	C275.000610,156.298355 295.644135,150.611633 318.266479,151.131180 
	C317.788605,148.889145 317.544678,147.114243 317.028717,145.422287 
	C312.145386,129.409744 301.961517,117.735443 287.108887,110.394722 
	C283.244049,108.484573 282.302399,106.385521 282.331177,102.501877 
	C282.377197,96.281837 280.461090,90.599380 276.134460,85.167519 
	C268.078644,93.597900 259.177795,98.743958 247.663925,99.423119 
	C248.010757,96.644951 248.332138,94.529167 248.530350,92.401909 
	C249.311234,84.020943 247.472763,76.193520 243.447311,68.844879 
	C242.034958,66.266563 240.520203,64.936241 237.670532,67.467842 
	C229.430832,74.787804 219.364456,78.035461 208.787415,80.188522 
	C199.822083,82.013504 190.785263,83.678329 182.011826,86.215401 
	C163.386139,91.601494 146.952835,100.649742 134.668945,117.185997 
M798.590637,235.134232 
	C795.394958,231.216431 792.199341,227.298630 788.830566,223.168640 
	C788.887207,223.097519 789.266907,222.577087 789.690491,222.095306 
	C803.257690,206.665573 796.387146,184.454498 776.334106,180.956680 
	C767.139893,179.352951 757.460327,179.929199 748.045288,180.401749 
	C741.565063,180.726974 738.513367,184.498215 738.498413,191.044296 
	C738.442749,215.336441 738.514771,239.630463 738.795715,263.920807 
	C738.880310,271.229706 741.848877,274.113525 749.252747,274.502441 
	C756.723938,274.894867 764.256653,275.176575 771.708191,274.684784 
	C794.375183,273.188690 805.893127,256.524078 798.590637,235.134232 
M466.888062,251.123718 
	C467.454437,235.010544 462.861908,227.564499 448.075165,221.321060 
	C442.415741,218.931488 436.471680,217.221634 430.779144,214.903015 
	C426.821228,213.290939 423.923370,210.486679 424.755249,205.702560 
	C425.613403,200.767365 429.378082,199.095963 433.803345,198.589508 
	C439.575439,197.928909 444.538330,199.963409 449.189880,203.254501 
	C453.174225,206.073502 457.104614,205.350189 460.547028,202.143372 
	C464.011169,198.916321 464.652557,194.308319 462.122223,190.337158 
	C461.074036,188.692093 459.642365,187.180374 458.095306,185.982178 
	C447.921814,178.103134 429.273529,177.014877 418.309814,183.737900 
	C408.788879,189.576218 404.375549,198.307388 405.009277,209.376205 
	C405.598785,219.673447 411.208496,226.776474 420.391968,230.950577 
	C425.674774,233.351730 431.257568,235.088928 436.685303,237.177063 
	C438.851929,238.010605 441.585632,238.445175 442.954803,240.022003 
	C444.956970,242.327805 447.192902,245.572632 447.030426,248.279236 
	C446.882294,250.746918 444.119263,253.859573 441.690063,255.168259 
	C439.138916,256.542633 435.273560,257.139191 432.589539,256.247772 
	C427.526306,254.566269 422.586212,252.029816 418.171387,249.006851 
	C413.035980,245.490463 407.209564,246.236679 404.220978,251.716293 
	C401.592957,256.534790 402.598022,261.953156 407.427551,266.026093 
	C417.171417,274.243500 428.620911,276.691742 441.065826,275.247650 
	C455.039917,273.626190 463.799164,265.703400 466.888062,251.123718 
M905.824829,273.966309 
	C913.689819,276.191162 918.127380,272.905273 918.159485,264.804749 
	C918.172668,261.473785 918.109314,258.142548 918.106506,254.811417 
	C918.088135,233.324783 918.119507,211.837982 918.039795,190.351593 
	C918.012695,183.047150 913.557739,179.294937 906.879456,180.658112 
	C902.359131,181.580811 900.049255,184.618652 899.992676,190.231705 
	C899.897827,199.637894 899.966736,209.045761 899.966736,218.652359 
	C884.438477,212.508331 872.233521,216.700317 865.896790,229.968719 
	C862.646423,236.774658 861.666809,243.856522 862.765381,251.355209 
	C865.658325,271.103424 884.753296,281.925598 901.060303,269.973999 
	C902.444092,271.213440 903.787781,272.416962 905.824829,273.966309 
M962.120605,203.495728 
	C962.120605,208.514969 962.120605,213.534210 962.120605,218.916885 
	C944.827332,210.405075 928.982849,219.622559 925.663208,237.163940 
	C924.870483,241.352966 924.761353,245.805496 925.153259,250.061737 
	C927.014404,270.272675 945.960083,282.352417 963.470154,269.676117 
	C966.009094,273.634064 969.320557,276.000977 974.273438,274.300201 
	C977.953918,273.036316 980.089417,270.560364 980.090881,266.519653 
	C980.100220,240.718643 980.166931,214.917404 980.069763,189.116791 
	C980.049683,183.788345 976.316528,180.412933 971.176758,180.370193 
	C966.017029,180.327286 962.401917,183.649170 962.163818,189.018478 
	C961.964966,193.504135 962.119751,198.005447 962.120605,203.495728 
M527.781250,259.932037 
	C527.787537,261.763123 527.768738,263.594666 527.804749,265.425171 
	C527.925171,271.555328 530.798462,274.767151 536.278809,274.928253 
	C541.909424,275.093781 545.541992,271.640472 545.671204,265.659821 
	C545.818542,258.837830 545.595520,252.006622 545.805481,245.187820 
	C545.885681,242.585602 546.277588,239.810974 547.315613,237.463409 
	C548.833069,234.031448 551.821594,232.084595 555.761719,232.571274 
	C559.596924,233.044983 561.523010,235.731583 562.179138,239.269928 
	C562.630981,241.706512 562.787842,244.223068 562.820435,246.707245 
	C562.907898,253.364517 562.716370,260.027679 562.909119,266.680573 
	C563.050903,271.574677 566.425842,274.727539 571.167603,274.923767 
	C576.243408,275.133789 580.558228,272.121674 580.584900,267.329376 
	C580.648743,255.861191 581.105591,244.269638 579.664490,232.949295 
	C577.699402,217.513336 562.311157,210.647354 548.664917,218.126923 
	C547.875000,218.559860 547.003906,218.844574 545.794434,219.357956 
	C545.794434,209.564072 545.835815,200.252396 545.780457,190.941269 
	C545.741089,184.310028 542.130920,180.223923 536.549561,180.305389 
	C530.728088,180.390335 527.677795,184.068863 527.683350,191.091888 
	C527.701294,213.730484 527.739380,236.369095 527.781250,259.932037 
M994.721863,301.008209 
	C999.137451,301.511444 1003.648010,302.852173 1007.951050,302.363800 
	C1021.893372,300.781525 1029.052612,291.144318 1031.567627,278.636444 
	C1035.039307,261.370300 1037.171387,243.827820 1039.625854,226.368362 
	C1040.347046,221.237213 1036.966553,217.477615 1032.117676,216.987366 
	C1026.645386,216.434052 1022.692017,219.474411 1022.042908,225.018204 
	C1021.501221,229.644485 1021.508728,234.344940 1020.792908,238.937714 
	C1020.237549,242.500870 1019.524353,246.288330 1017.756775,249.320541 
	C1016.692749,251.145813 1013.408508,252.695679 1011.244324,252.550201 
	C1009.391846,252.425674 1007.170471,250.006607 1006.112122,248.059036 
	C1005.073181,246.147369 1005.082214,243.557816 1005.005798,241.253311 
	C1004.829224,235.927475 1005.006531,230.589203 1004.800476,225.265259 
	C1004.608215,220.295090 1001.727356,217.350647 997.160950,217.013626 
	C992.295715,216.654541 988.042786,219.243591 987.694519,223.901749 
	C986.824280,235.541168 986.675659,247.277023 990.980652,258.390320 
	C994.377441,267.159027 1002.829895,271.382965 1012.004150,269.609375 
	C1013.255249,269.367462 1014.497681,269.080261 1015.850403,268.791321 
	C1014.643433,284.140137 1006.298035,287.208344 997.214355,282.183990 
	C991.379272,278.956512 985.037354,284.116150 985.678955,291.045197 
	C986.157166,296.209686 989.710144,298.808533 994.721863,301.008209 
M689.136047,219.255447 
	C678.134644,213.201675 665.576233,213.632553 657.145508,220.353088 
	C647.397034,228.124084 643.421143,242.270874 647.454529,255.825470 
	C650.639343,266.528229 657.769409,273.299286 668.905273,274.948669 
	C680.391663,276.649994 690.233093,273.076630 696.715210,263.170959 
	C706.413696,248.350082 702.170227,227.529526 689.136047,219.255447 
M610.754761,275.145966 
	C622.639954,275.895386 631.937317,271.569946 637.909790,261.036163 
	C647.527039,244.074173 639.760925,221.444885 622.597656,216.195312 
	C606.142029,211.162155 590.720764,220.181259 586.732849,237.170761 
	C582.227966,256.362762 591.894531,272.209991 610.754761,275.145966 
M843.420105,273.339722 
	C850.383972,276.631012 856.081421,273.573151 856.229248,266.012085 
	C856.489685,252.696625 856.424622,239.371979 856.298401,226.053040 
	C856.240234,219.920349 853.036682,216.820084 847.516235,216.901932 
	C841.916748,216.984924 839.165344,220.015747 839.100525,226.359970 
	C839.035828,232.689499 839.303772,239.031387 838.981140,245.345108 
	C838.842407,248.059830 838.243408,251.248322 836.639404,253.247437 
	C835.113159,255.149658 831.861389,256.926361 829.632690,256.647217 
	C827.461060,256.375214 825.146484,253.726974 823.796021,251.560242 
	C822.767822,249.910706 822.972351,247.384720 822.938232,245.243744 
	C822.829163,238.415298 823.019775,231.579391 822.792480,224.756439 
	C822.626465,219.773376 819.646545,217.056351 814.895874,216.930832 
	C809.657776,216.792465 806.066101,219.333740 805.989929,224.245575 
	C805.830017,234.560394 805.568787,244.941833 806.520203,255.187180 
	C807.545837,266.230835 813.678650,272.593384 823.140381,274.456696 
	C829.686035,275.745728 835.230225,273.413116 840.221375,269.202026 
	C841.185059,270.540100 842.023621,271.704437 843.420105,273.339722 
M484.040894,219.484161 
	C472.068420,228.700806 468.380585,241.938431 472.759705,256.137390 
	C478.871887,275.955444 500.581024,279.676270 514.568848,271.517395 
	C517.036377,270.078125 519.286255,267.740570 520.789246,265.296692 
	C523.001038,261.700317 521.640808,258.161774 518.735840,255.395081 
	C515.826416,252.624222 512.652893,252.503479 509.198608,254.728119 
	C507.140930,256.053314 504.866913,257.365173 502.518097,257.850616 
	C497.110138,258.968323 492.512207,256.344879 490.290955,251.448074 
	C487.719757,245.779877 489.008575,238.642899 493.286438,234.860565 
	C497.382935,231.238586 502.611084,230.677811 507.423096,234.563171 
	C512.543640,238.697647 518.844421,236.195587 520.829651,230.847946 
	C522.463989,226.445618 520.540222,221.926682 515.093201,218.936310 
	C504.999725,213.395065 494.767883,213.341125 484.040894,219.484161 
M707.271545,257.128601 
	C707.539490,259.108429 707.666504,261.119690 708.099854,263.062622 
	C709.932251,271.277924 717.246155,276.356964 725.117065,274.891479 
	C729.057129,274.157867 732.386292,272.016663 732.425964,267.888428 
	C732.454468,264.918823 731.459961,260.348450 729.446472,259.284698 
	C725.380981,257.136841 725.214111,254.339584 725.219604,250.742538 
	C725.250427,230.425842 725.271667,210.108780 725.176086,189.792419 
	C725.139832,182.091385 718.343262,177.912979 711.741699,181.428101 
	C707.602722,183.631958 707.132996,187.611404 707.140930,191.756302 
	C707.181763,213.238434 707.207153,234.720627 707.271545,257.128601 
M55.286465,128.338348 
	C52.005589,126.721077 50.031651,128.149826 50.651039,131.373260 
	C51.890732,137.824890 50.473850,142.368195 44.330070,145.669495 
	C40.915157,147.504456 41.478783,150.185654 45.362057,150.875153 
	C51.725147,152.004959 55.978584,154.724457 56.971882,161.556564 
	C57.146221,162.755722 58.599049,164.535431 59.598877,164.632568 
	C60.598625,164.729721 62.309441,163.271149 62.776131,162.117386 
	C65.080009,156.421661 68.926086,154.238495 75.134583,154.854065 
	C79.224899,155.259613 80.557793,152.503876 77.618744,149.691116 
	C72.988434,145.259750 72.200104,140.720505 74.677353,135.054932 
	C75.160759,133.949356 74.781357,132.058868 74.079018,131.015854 
	C73.732040,130.500549 71.447754,130.649353 70.544968,131.252914 
	C64.768288,135.114914 60.071648,133.557053 55.286465,128.338348 
M163.763504,241.596024 
	C164.729416,242.727768 165.564590,244.013168 166.683472,244.965149 
	C172.035904,249.519104 178.356064,249.952545 184.205017,246.289185 
	C190.163193,242.557419 192.727676,236.420898 191.200638,229.549576 
	C189.835098,223.404968 184.101700,218.246536 177.971619,217.647247 
	C171.256470,216.990753 165.427246,220.356842 162.708694,226.564987 
	C160.570099,231.448761 160.829514,236.270370 163.763504,241.596024 
M277.311066,234.967163 
	C277.649231,224.631775 271.063507,217.173248 261.963470,217.585510 
	C254.045303,217.944244 247.846191,224.267532 247.341568,232.500259 
	C246.846832,240.571701 252.466003,247.534683 260.432922,248.722382 
	C267.922028,249.838852 275.067047,244.301010 277.311066,234.967163 
M323.687988,71.259949 
	C325.996307,67.403717 328.443115,63.622181 330.574860,59.670670 
	C332.802032,55.542328 331.278320,50.644264 327.377106,48.464485 
	C323.504089,46.300468 318.630127,47.722851 316.350037,52.090618 
	C311.883484,60.646824 307.566254,69.284531 303.369293,77.976425 
	C301.296936,82.268272 302.507996,85.970222 306.118866,87.760315 
	C309.603302,89.487724 313.485657,88.197372 315.893433,84.320763 
	C318.439728,80.221107 320.833557,76.026779 323.687988,71.259949 
M144.381363,54.080978 
	C142.759735,50.626221 141.247818,47.114464 139.489731,43.730606 
	C137.097046,39.125309 132.376190,37.598053 128.150604,39.873245 
	C124.041718,42.085606 122.751060,46.964867 125.231300,51.497231 
	C129.612045,59.502533 134.054016,67.474846 138.534683,75.424713 
	C140.972488,79.749985 144.639160,81.194283 148.429932,79.491867 
	C152.060440,77.861443 153.298676,73.806808 151.330154,69.248489 
	C149.225266,64.374298 146.921295,59.586079 144.381363,54.080978 
M233.708038,39.540291 
	C239.743591,35.076271 241.781555,29.449785 239.658875,23.111073 
	C237.997467,18.149792 232.946518,14.738040 227.333572,14.785762 
	C221.278900,14.837239 216.504913,18.299641 214.652603,24.078575 
	C212.960190,29.358683 214.346024,33.924042 218.243973,37.698025 
	C222.590637,41.906437 227.656082,42.034039 233.708038,39.540291 
M91.620171,88.677040 
	C86.607986,86.350075 83.439644,86.927132 81.248657,90.566017 
	C79.018387,94.270149 79.959167,97.858315 84.070404,100.863190 
	C89.972565,105.177048 95.912025,109.440132 101.853882,113.699326 
	C105.162605,116.071053 108.541862,116.966179 111.569473,113.361336 
	C114.136658,110.304710 113.353706,106.767662 109.457748,103.468910 
	C103.750679,98.636658 97.973419,93.887283 91.620171,88.677040 
M353.893188,115.359573 
	C357.490845,112.983406 361.160675,110.708221 364.666534,108.203529 
	C368.408630,105.530060 369.125427,101.636681 366.745270,98.259338 
	C364.271851,94.749641 360.449646,93.908165 356.767487,96.624222 
	C350.496674,101.249718 344.407684,106.127876 338.346100,111.028282 
	C335.501251,113.328171 334.938690,116.378983 337.037842,119.430145 
	C339.200500,122.573616 342.357513,122.687683 345.426941,120.986977 
	C348.170410,119.466873 350.670746,117.507988 353.893188,115.359573 
M380.470825,138.813690 
	C374.285217,139.411407 370.694519,142.038483 369.332153,146.963104 
	C367.965363,151.903732 369.600250,156.970139 373.492218,159.855011 
	C377.438354,162.780014 382.814056,162.892288 387.002258,160.083878 
	C391.389160,157.142242 392.767212,152.857361 391.737885,147.929718 
	C390.588806,142.428848 386.847412,139.507706 380.470825,138.813690 
M950.538330,331.767883 
	C959.028992,331.759949 967.525146,331.901825 976.005005,331.595551 
	C977.405579,331.544983 978.735352,329.532379 980.097839,328.426453 
	C978.914062,327.335022 977.747986,325.318542 976.543762,325.295532 
	C964.728271,325.069794 952.904236,325.076477 941.089355,325.330719 
	C939.806702,325.358307 938.566589,327.361450 937.306702,328.448303 
	C938.559692,329.531586 939.685730,331.289795 941.092712,331.554474 
	C943.830383,332.069366 946.725647,331.746857 950.538330,331.767883 
M574.825562,322.696136 
	C574.829041,326.359802 574.739563,330.027283 574.888794,333.684998 
	C574.937988,334.890106 575.241272,336.510956 576.054810,337.180298 
	C578.694397,339.352081 588.885986,337.360504 590.871582,334.526520 
	C594.395630,329.496826 587.308228,324.591705 590.651428,319.424866 
	C591.003601,318.880554 589.752747,316.331482 588.955994,316.173492 
	C584.836182,315.356720 580.612061,314.707886 576.451599,314.842377 
	C575.832336,314.862396 575.357544,319.349945 574.825562,322.696136 
M284.752380,260.893616 
	C281.734894,254.320755 274.734589,251.805664 268.889923,255.796799 
	C266.917542,257.143646 265.186127,260.256317 265.143250,262.594940 
	C265.104858,264.687134 267.058136,267.587311 268.974884,268.803192 
	C275.434937,272.901062 283.166718,269.206512 284.752380,260.893616 
M158.225266,268.584473 
	C161.123215,269.029388 164.062164,270.014130 166.909866,269.797729 
	C171.650253,269.437500 174.940445,264.878815 173.864243,260.659119 
	C172.771423,256.374329 169.280563,254.719406 165.336197,254.103165 
	C160.793503,253.393433 157.037369,255.084442 154.794052,259.098267 
	C152.701309,262.842651 154.531784,265.762360 158.225266,268.584473 
M725.179810,323.999115 
	C723.581360,323.913879 721.982849,323.828644 720.321045,323.740051 
	C720.321045,321.729492 720.321045,320.142731 720.321045,318.183350 
	C723.409058,318.183350 726.229858,318.299347 729.029114,318.105286 
	C729.768982,318.053986 730.442627,317.046906 731.146667,316.478699 
	C730.443909,315.742737 729.777222,314.417053 729.032227,314.371490 
	C725.555176,314.158875 722.034790,314.089691 718.579407,314.447571 
	C717.599731,314.549042 716.062805,316.232391 716.017639,317.245300 
	C715.759094,323.054474 715.750671,328.884918 715.973877,334.695923 
	C716.013550,335.729645 717.464661,337.480988 718.393127,337.571014 
	C721.850830,337.906525 725.370850,337.815735 728.847778,337.586182 
	C729.706787,337.529480 730.491455,336.346100 731.310303,335.680634 
	C730.493286,335.040863 729.717285,333.923615 728.851746,333.849426 
	C726.083130,333.612061 723.281311,333.761353 720.363953,333.761353 
	C720.363953,331.516022 720.363953,329.789459 720.363953,327.767487 
	C722.525635,327.767487 724.378784,327.978729 726.150452,327.689941 
	C727.249573,327.510803 728.225159,326.573151 729.256165,325.975983 
	C728.178345,325.317230 727.100586,324.658478 725.179810,323.999115 
M627.286316,337.728088 
	C627.714966,337.490997 628.512329,337.263306 628.518616,337.015442 
	C628.702698,329.784515 628.852722,322.551422 628.826599,315.319336 
	C628.824829,314.829132 627.308105,313.863007 626.666626,313.988800 
	C625.993896,314.120697 625.139465,315.255676 625.046326,316.033905 
	C624.814331,317.970795 624.969910,319.954132 624.969910,322.031525 
	C624.152405,321.911163 623.629822,321.938416 623.197388,321.754028 
	C619.721191,320.271790 616.926697,321.461395 614.963379,324.297638 
	C612.550293,327.783752 612.814209,331.606781 615.114258,335.021637 
	C617.107117,337.980347 620.017639,338.627014 623.444397,337.289734 
	C624.291748,336.959076 625.475464,337.490234 627.286316,337.728088 
M641.328918,321.249634 
	C637.479004,320.606567 634.198608,322.257294 633.438721,325.700531 
	C632.765442,328.751465 633.311462,332.587646 634.673828,335.427399 
	C636.055176,338.307098 639.399963,338.784668 642.557739,337.163818 
	C643.089050,336.891052 643.938599,336.631439 644.369934,336.865417 
	C648.289062,338.991638 648.151489,336.231598 648.169434,333.752136 
	C648.206726,328.592316 648.321289,323.425995 648.097839,318.275635 
	C648.031799,316.755066 646.939636,315.279053 646.317749,313.782623 
	C645.602722,315.214050 644.922241,316.664154 644.162048,318.071228 
	C643.521851,319.256348 642.789001,320.391418 641.328918,321.249634 
M864.669067,338.226318 
	C864.664612,339.388092 864.393982,340.633759 864.726624,341.689301 
	C865.098816,342.870392 866.017639,343.879211 866.698547,344.963013 
	C867.321350,343.941620 868.259888,342.985962 868.489685,341.882690 
	C868.800415,340.391113 868.566895,338.786133 868.566895,336.652740 
	C873.346069,338.921021 877.199707,337.998474 878.764587,334.301300 
	C879.953674,331.492035 879.933350,327.397400 878.772156,324.562256 
	C877.314392,321.002899 873.605469,320.251068 869.826599,322.005432 
	C869.319885,322.240662 868.523560,322.204834 867.994202,321.980682 
	C864.865784,320.656036 864.685242,322.647247 864.678284,324.847412 
	C864.665100,328.996582 864.671753,333.145813 864.669067,338.226318 
M824.281494,316.863251 
	C820.683899,313.459167 816.549377,313.157349 812.338379,315.271698 
	C808.059509,317.420197 806.283691,321.389923 806.304749,325.965881 
	C806.326660,330.720367 808.164917,334.802429 812.674683,336.979553 
	C816.599854,338.874542 820.515259,338.399414 823.776184,335.445068 
	C824.598755,334.699799 824.590698,333.037781 824.964417,331.797119 
	C823.830383,331.958405 822.701050,332.177979 821.561462,332.269257 
	C818.952515,332.478210 816.009155,333.465424 813.803345,332.600952 
	C810.421448,331.275635 809.737488,324.588196 812.004822,321.036346 
	C814.130615,317.706177 817.460571,317.245422 821.524292,319.586639 
	C822.393494,320.087402 823.494629,320.185638 824.488831,320.469269 
	C824.584290,319.429657 824.679688,318.390045 824.281494,316.863251 
M850.579712,321.658813 
	C849.653870,322.815399 848.727966,323.972015 847.802124,325.128662 
	C849.198792,325.099792 850.608643,324.939606 851.988403,325.078613 
	C853.396606,325.220459 854.775330,325.656189 856.166931,325.963257 
	C856.081665,326.487793 855.996338,327.012329 855.911011,327.536865 
	C854.816101,327.633575 853.720032,327.718048 852.626587,327.829224 
	C848.914917,328.206451 846.032410,329.511627 846.713501,333.979431 
	C847.220337,337.304626 850.490112,338.615387 854.595886,337.396698 
	C855.465820,337.138489 856.581848,336.588531 857.233582,336.902222 
	C860.924133,338.678619 861.272705,336.988495 860.728577,333.896088 
	C860.473206,332.444611 860.514954,330.933289 860.500122,329.448303 
	C860.432068,322.650970 858.228516,320.715240 850.579712,321.658813 
M473.391479,325.103699 
	C467.927094,325.106598 462.451111,324.917084 457.006439,325.246094 
	C455.625854,325.329498 453.857574,326.827820 453.222717,328.138611 
	C452.902100,328.800659 454.682709,331.534485 455.570190,331.563019 
	C463.669128,331.823669 471.785034,331.816254 479.882660,331.521698 
	C480.862030,331.486084 482.539673,329.239777 482.472382,328.102112 
	C482.410065,327.048645 480.588013,325.674652 479.274658,325.232300 
	C477.786316,324.730957 476.001770,325.109039 473.391479,325.103699 
M754.130005,332.062012 
	C756.197571,331.664948 758.251282,331.047546 760.335510,330.917053 
	C764.574646,330.651672 766.223511,328.179474 763.485168,324.950317 
	C761.827576,322.995575 758.578003,321.374756 756.062317,321.400818 
	C752.249573,321.440247 750.050781,324.504456 749.619080,328.404266 
	C749.200684,332.183777 750.183228,335.874542 753.936035,336.944580 
	C756.591736,337.701813 759.817810,336.591949 762.748108,336.079773 
	C763.105347,336.017365 763.206482,334.489349 763.426270,333.640564 
	C762.560303,333.486572 761.700012,333.261780 760.827332,333.192688 
	C758.725464,333.026245 756.617920,332.932709 754.130005,332.062012 
M839.318359,334.795563 
	C839.846558,335.730377 840.273743,336.757965 840.981140,337.528259 
	C841.138123,337.699249 842.891846,336.942810 842.882141,336.647095 
	C842.737976,332.249969 843.215759,327.568756 841.770386,323.601898 
	C841.153076,321.907684 836.438110,321.706482 832.931519,320.625336 
	C832.931519,320.035919 833.128723,318.185760 832.849243,316.410675 
	C832.707214,315.508636 831.706848,314.741791 831.094543,313.913818 
	C830.392761,314.665771 829.103088,315.401794 829.082214,316.172211 
	C828.911499,322.480469 828.908264,328.796661 829.052063,335.105957 
	C829.071472,335.960449 830.188721,336.789856 830.797668,337.630859 
	C831.514404,336.699921 832.685486,335.843536 832.853027,334.822479 
	C833.198914,332.714691 832.582336,330.388519 833.188416,328.404785 
	C833.603149,327.047241 835.414795,326.116455 836.601990,324.994904 
	C837.531616,326.154114 838.926636,327.189972 839.274841,328.503326 
	C839.725830,330.204163 839.342041,332.126373 839.318359,334.795563 
M907.409363,323.015991 
	C903.633606,320.101990 899.999268,320.401764 896.781433,323.795807 
	C894.140930,326.580933 894.043640,331.898254 896.428101,334.876831 
	C899.058960,338.163300 902.502258,338.854034 906.224670,337.186310 
	C907.348633,336.682770 908.015137,335.158478 908.891235,334.101776 
	C907.661194,333.972504 906.425720,333.881409 905.202393,333.705353 
	C903.151672,333.410217 901.108765,333.060974 899.062561,332.734467 
	C899.168091,332.259644 899.273682,331.784790 899.379211,331.309937 
	C911.490540,329.691498 911.490540,329.691498 907.409363,323.015991 
M661.982666,334.553619 
	C663.166626,331.277924 664.447266,328.031921 665.469727,324.706573 
	C665.741516,323.822571 665.220703,322.694855 665.063843,321.679047 
	C664.081177,322.243591 662.649048,322.570435 662.200989,323.417694 
	C660.911377,325.856079 660.019287,328.504700 658.668396,331.811371 
	C657.341675,328.565857 656.551880,326.046722 655.282104,323.798706 
	C654.726746,322.815460 653.189819,322.386627 652.098572,321.706024 
	C651.977478,322.843994 651.462463,324.121216 651.806519,325.094818 
	C653.020081,328.529022 654.881470,331.769409 655.770081,335.267975 
	C656.192017,336.929169 655.185547,339.102264 654.410278,340.860046 
	C653.976318,341.843994 652.691833,342.452850 651.790527,343.230713 
	C652.324341,343.793121 652.962219,344.899445 653.373291,344.820770 
	C654.895569,344.529449 656.958374,344.277313 657.694214,343.224762 
	C659.378479,340.815796 660.400574,337.943909 661.982666,334.553619 
M701.898254,330.516815 
	C701.069824,327.761658 701.017822,323.516174 699.237244,322.588531 
	C696.311340,321.064117 692.266785,321.599487 688.688232,321.521332 
	C688.220215,321.511078 687.331848,322.991760 687.299744,323.807922 
	C687.149536,327.629242 687.110352,331.466400 687.324158,335.281525 
	C687.370911,336.115906 688.615051,336.883148 689.307739,337.681305 
	C689.959351,336.859131 691.060730,336.094482 691.174622,335.203552 
	C691.468140,332.908295 690.964600,330.470764 691.494934,328.261780 
	C691.797974,326.999573 693.500427,326.073334 694.572876,324.995850 
	C695.598694,326.063995 697.127380,326.973694 697.526062,328.239380 
	C698.052612,329.910370 697.455933,331.905243 697.789795,333.676514 
	C698.056274,335.089569 698.992676,336.376343 699.631714,337.719147 
	C700.375793,336.442871 701.245117,335.219238 701.812866,333.868866 
	C702.111633,333.158234 701.883545,332.226105 701.898254,330.516815 
M512.734802,319.442444 
	C513.025330,317.840454 513.315857,316.238464 513.606384,314.636505 
	C512.144043,315.570099 510.374603,316.240509 509.294067,317.501312 
	C507.815552,319.226532 506.860626,321.400452 505.361816,323.918732 
	C503.747894,321.281128 502.558075,318.903595 500.938904,316.867523 
	C500.089722,315.799652 498.487885,315.330261 497.225922,314.590637 
	C497.289825,315.978271 496.895294,317.617767 497.495667,318.710693 
	C500.337616,323.883850 504.289642,328.577637 503.184479,335.177032 
	C503.069427,335.864075 504.635956,336.832703 505.422241,337.670685 
	C506.046783,336.636963 507.342072,335.487701 507.187134,334.588287 
	C506.172791,328.699036 509.415161,324.446808 512.734802,319.442444 
M545.661133,321.327209 
	C545.045593,322.013519 544.014221,322.636322 543.897766,323.398834 
	C543.623840,325.191742 544.219543,327.198364 543.659912,328.845551 
	C543.010620,330.756561 541.502258,332.375732 540.366760,334.121552 
	C539.365723,332.487122 538.039246,330.958527 537.463013,329.185974 
	C536.972046,327.675903 537.585327,325.834625 537.250244,324.236298 
	C537.027832,323.175598 535.994934,322.284851 535.324829,321.318024 
	C534.661072,322.319855 533.617920,323.252441 533.419495,324.339203 
	C533.095520,326.114441 533.293579,327.990540 533.321228,329.823364 
	C533.428589,336.947968 535.702637,338.694214 542.511108,337.047424 
	C543.300964,336.856384 544.255188,337.435944 545.095581,337.337463 
	C545.959412,337.236267 547.518738,336.705505 547.504944,336.424896 
	C547.261108,331.444733 546.823547,326.474030 545.661133,321.327209 
M521.667603,338.017487 
	C527.284058,337.150970 530.111694,334.336823 530.141113,329.584473 
	C530.167053,325.389282 527.185120,321.698761 523.153381,321.243927 
	C518.737976,320.745850 515.851379,322.978088 514.409241,326.980927 
	C512.853394,331.299500 515.010681,335.301636 519.922974,337.686310 
	C520.213501,337.827332 520.558472,337.856140 521.667603,338.017487 
M597.573181,321.367737 
	C596.896606,324.200562 595.726868,327.018494 595.640564,329.869171 
	C595.425903,336.960693 597.856140,338.682159 604.766235,337.035248 
	C605.440002,336.874664 606.325500,337.353821 606.901550,337.084503 
	C608.009521,336.566528 609.777222,335.796234 609.846619,335.005463 
	C610.165649,331.372498 610.106140,327.690399 609.914490,324.039978 
	C609.867920,323.154053 608.804443,322.321594 608.208557,321.464539 
	C607.493652,322.366394 606.328125,323.191895 606.159729,324.186371 
	C605.830811,326.127899 606.521790,328.319977 605.916443,330.113251 
	C605.396301,331.654083 603.659119,332.784119 602.460144,334.095795 
	C601.567383,332.747742 600.289978,331.509918 599.865234,330.027740 
	C599.081238,327.292267 598.797546,324.413483 597.573181,321.367737 
M891.440857,333.737701 
	C890.481262,333.128662 888.892761,332.693359 888.668335,331.881134 
	C887.552246,327.842377 888.565002,324.513092 893.865967,323.364349 
	C891.365601,321.779358 889.812378,321.026123 888.566284,319.925262 
	C887.706299,319.165436 887.270996,317.924927 886.645996,316.899261 
	C885.894836,317.984558 885.178223,319.095978 884.382996,320.148010 
	C883.544556,321.257172 882.631042,322.309601 882.608521,322.337158 
	C883.459900,325.410065 884.153625,327.406250 884.539490,329.460266 
	C884.873230,331.236786 884.180481,333.739777 885.154480,334.737701 
	C886.627686,336.247009 889.154236,336.728119 891.233215,337.646149 
	C891.582764,336.417053 891.932312,335.187927 891.440857,333.737701 
M743.430298,324.912201 
	C742.547913,326.938049 741.665527,328.963898 740.467346,331.714691 
	C739.096802,328.266571 738.199585,325.595551 736.945007,323.104523 
	C736.568481,322.357056 735.195496,322.111481 734.279114,321.635986 
	C733.982422,322.592834 733.204773,323.717682 733.470337,324.478058 
	C734.776917,328.218719 736.246521,331.914215 737.880859,335.524994 
	C739.282288,338.621277 741.379700,338.609833 742.862793,335.722870 
	C744.592712,332.355347 745.911682,328.759216 747.171265,325.178680 
	C747.529968,324.159180 747.061401,322.848663 746.972229,321.671631 
	C745.887085,322.523834 744.801880,323.376038 743.430298,324.912201 
M999.250977,332.777710 
	C1001.525940,329.598328 1001.545959,326.118378 998.308044,324.153625 
	C996.425232,323.011078 992.440613,322.931366 990.952576,324.196899 
	C989.382751,325.531982 988.798096,329.230591 989.322388,331.548462 
	C990.169067,335.292175 993.987061,335.765411 999.250977,332.777710 
M436.376648,334.328094 
	C439.750122,335.612946 443.031464,335.141083 444.260345,331.690826 
	C445.002838,329.606201 444.638336,326.031372 443.250732,324.595184 
	C441.888977,323.185730 438.302307,322.749939 436.224335,323.455170 
	C431.996277,324.890137 431.949249,329.749969 436.376648,334.328094 
M917.770325,326.932312 
	C918.866577,326.332642 920.033142,325.830292 921.038147,325.104279 
	C921.934631,324.456635 922.652588,323.561768 923.449341,322.776001 
	C922.357483,322.263794 921.305847,321.471954 920.163879,321.307556 
	C918.611694,321.084076 916.901489,321.048004 915.430847,321.495819 
	C914.487427,321.783081 913.249329,323.044403 913.186707,323.941864 
	C912.934509,327.556152 912.947510,331.208069 913.186279,334.824677 
	C913.249939,335.788330 914.464966,336.675934 915.151306,337.598450 
	C915.802917,336.606354 916.854797,335.677429 917.023438,334.609100 
	C917.380554,332.346436 917.276794,330.011017 917.770325,326.932312 
M555.595886,336.588623 
	C555.704529,335.941986 555.847961,335.298981 555.916077,334.648102 
	C556.338562,330.607574 554.145081,325.140808 561.372070,324.792572 
	C561.705078,324.776520 562.412476,323.217651 562.182556,322.830841 
	C561.746338,322.096863 560.805298,321.315033 559.989075,321.209564 
	C553.208862,320.333374 552.004456,321.475220 551.977783,328.532471 
	C551.969666,330.677765 551.711426,332.889496 552.164978,334.938629 
	C552.369080,335.860474 554.039429,336.457794 555.595886,336.588623 
M683.007874,327.703400 
	C682.995239,326.876617 683.203857,325.963440 682.922058,325.241760 
	C682.395813,323.893860 681.584900,322.657104 680.892395,321.374115 
	C680.190186,322.648987 679.008606,323.878235 678.881958,325.207886 
	C678.585632,328.321228 678.643433,331.494415 678.883545,334.618317 
	C678.965210,335.681274 680.021484,336.669312 680.632446,337.691559 
	C681.425049,336.647400 682.674011,335.695190 682.907104,334.538300 
	C683.291504,332.630371 683.019287,330.590210 683.007874,327.703400 
z"/>
<path fill="#03214F" opacity="1.000000" stroke="none" 
	d="
M134.878891,116.896957 
	C146.952835,100.649742 163.386139,91.601494 182.011826,86.215401 
	C190.785263,83.678329 199.822083,82.013504 208.787415,80.188522 
	C219.364456,78.035461 229.430832,74.787804 237.670532,67.467842 
	C240.520203,64.936241 242.034958,66.266563 243.447311,68.844879 
	C247.472763,76.193520 249.311234,84.020943 248.530350,92.401909 
	C248.332138,94.529167 248.010757,96.644951 247.663925,99.423119 
	C259.177795,98.743958 268.078644,93.597900 276.134460,85.167519 
	C280.461090,90.599380 282.377197,96.281837 282.331177,102.501877 
	C282.302399,106.385521 283.244049,108.484573 287.108887,110.394722 
	C301.961517,117.735443 312.145386,129.409744 317.028717,145.422287 
	C317.544678,147.114243 317.788605,148.889145 318.266479,151.131180 
	C295.644135,150.611633 275.000610,156.298355 255.694092,166.291107 
	C256.082916,159.774734 256.460876,153.440765 256.838837,147.106796 
	C256.418945,147.026047 255.999069,146.945282 255.579193,146.864532 
	C252.393692,150.555603 249.359360,154.391113 245.995346,157.911591 
	C234.296478,170.154449 219.894318,177.250595 203.208649,179.698364 
	C201.394791,179.964462 198.961807,179.814865 197.601776,178.802490 
	C175.072083,162.031616 149.986374,152.483292 121.230919,151.657196 
	C122.322792,138.592484 127.329315,127.450981 134.878891,116.896957 
z"/>
<path fill="#0485DC" opacity="1.000000" stroke="none" 
	d="
M87.009125,325.720001 
	C86.930779,309.786041 86.852432,293.852081 87.252579,277.453979 
	C91.043968,275.281586 94.354408,273.568573 97.670326,271.866180 
	C102.492165,269.390717 104.656281,265.107666 105.382240,260.034454 
	C105.515167,259.105499 104.371017,257.993774 103.820938,256.550232 
	C103.757172,247.262009 100.133736,243.102997 93.023857,243.949402 
	C91.110344,244.177200 89.262115,244.953400 87.278320,244.973755 
	C87.092422,233.440414 87.012115,222.411163 86.928558,210.954315 
	C86.841011,206.277390 86.756714,202.028030 86.672424,197.778687 
	C86.728447,188.787857 86.772552,179.796951 86.844406,170.806244 
	C86.897491,164.163467 89.200584,161.143448 95.716911,160.389282 
	C107.587280,159.015503 119.341377,160.289047 130.876541,163.204926 
	C135.394821,164.347046 136.849106,167.954254 136.838684,172.445877 
	C136.785690,195.259720 136.834793,218.073776 136.838364,240.887756 
	C136.840485,254.376312 136.918350,267.865936 136.764481,281.352844 
	C136.712341,285.922363 138.328232,288.277893 143.031036,289.258545 
	C178.958801,296.750549 204.070236,317.398071 218.038406,352.217346 
	C217.782181,353.566589 217.449753,354.187378 216.843445,354.532654 
	C215.096069,353.168335 213.577057,352.135620 212.155991,350.982239 
	C195.922241,337.806885 177.997650,327.913574 157.686722,322.497925 
	C136.731155,316.910431 115.893112,316.878143 94.755524,323.382385 
	C91.932747,324.208252 89.470932,324.964111 87.009125,325.720001 
z"/>
<path fill="#5FAF2E" opacity="1.000000" stroke="none" 
	d="
M224.850235,338.748901 
	C234.710190,320.865540 248.986099,307.371857 267.081543,298.311279 
	C275.165009,294.263794 284.123322,291.783447 292.898102,289.367279 
	C297.813812,288.013702 299.829742,285.770142 299.815857,280.763123 
	C299.717346,245.129135 299.757599,209.494766 299.748688,173.860535 
	C299.746613,165.498993 301.091125,163.291931 309.372528,162.264496 
	C318.910370,161.081192 328.569061,160.355927 338.173187,160.377151 
	C346.670563,160.395920 349.180695,163.647369 349.237122,172.202377 
	C349.292023,180.527817 349.265839,188.853775 349.217285,198.101730 
	C349.157837,203.319168 349.156342,207.614395 349.087982,212.381592 
	C348.841522,223.935730 348.661987,235.017868 348.127319,246.052689 
	C343.622803,243.675217 339.405304,242.601608 335.281677,245.919312 
	C331.210480,249.194824 330.818390,253.757355 332.413788,258.138062 
	C335.205078,265.802277 341.706512,268.408020 349.275024,269.041962 
	C349.268494,287.572754 349.261963,306.103577 348.697540,325.034668 
	C345.720856,324.879669 343.302063,324.324432 340.603943,323.573090 
	C321.827362,317.068451 303.091980,317.245270 284.257629,321.486420 
	C265.696533,325.665955 248.911270,333.916534 232.878189,343.921631 
	C230.083649,341.994537 227.466949,340.371704 224.850235,338.748901 
z"/>
<path fill="#F44C6E" opacity="1.000000" stroke="none" 
	d="
M798.743652,235.488541 
	C805.893127,256.524078 794.375183,273.188690 771.708191,274.684784 
	C764.256653,275.176575 756.723938,274.894867 749.252747,274.502441 
	C741.848877,274.113525 738.880310,271.229706 738.795715,263.920807 
	C738.514771,239.630463 738.442749,215.336441 738.498413,191.044296 
	C738.513367,184.498215 741.565063,180.726974 748.045288,180.401749 
	C757.460327,179.929199 767.139893,179.352951 776.334106,180.956680 
	C796.387146,184.454498 803.257690,206.665573 789.690491,222.095306 
	C789.266907,222.577087 788.887207,223.097519 788.830566,223.168640 
	C792.199341,227.298630 795.394958,231.216431 798.743652,235.488541 
M757.157532,246.475464 
	C757.157532,249.550766 757.157532,252.626083 757.157532,256.028381 
	C762.257019,256.028381 766.561707,256.243866 770.836548,255.978210 
	C777.345398,255.573700 781.084534,251.895767 781.257690,246.198471 
	C781.438049,240.264297 778.216980,236.122131 771.893494,235.372650 
	C767.213135,234.817932 762.414307,235.263580 757.146973,235.263580 
	C757.146973,238.942657 757.146973,242.221664 757.157532,246.475464 
M759.954895,198.238571 
	C759.048523,198.982758 757.388550,199.696167 757.356689,200.476089 
	C757.129944,206.028503 757.235779,211.594513 757.235779,217.916840 
	C762.220215,217.531815 766.534973,217.587341 770.680237,216.776230 
	C775.463562,215.840225 777.266479,211.996490 777.368896,207.489517 
	C777.471680,202.964279 775.179565,199.745224 770.712891,198.844971 
	C767.510620,198.199554 764.142212,198.378311 759.954895,198.238571 
z"/>
<path fill="#072451" opacity="1.000000" stroke="none" 
	d="
M466.854248,251.565765 
	C463.799164,265.703400 455.039917,273.626190 441.065826,275.247650 
	C428.620911,276.691742 417.171417,274.243500 407.427551,266.026093 
	C402.598022,261.953156 401.592957,256.534790 404.220978,251.716293 
	C407.209564,246.236679 413.035980,245.490463 418.171387,249.006851 
	C422.586212,252.029816 427.526306,254.566269 432.589539,256.247772 
	C435.273560,257.139191 439.138916,256.542633 441.690063,255.168259 
	C444.119263,253.859573 446.882294,250.746918 447.030426,248.279236 
	C447.192902,245.572632 444.956970,242.327805 442.954803,240.022003 
	C441.585632,238.445175 438.851929,238.010605 436.685303,237.177063 
	C431.257568,235.088928 425.674774,233.351730 420.391968,230.950577 
	C411.208496,226.776474 405.598785,219.673447 405.009277,209.376205 
	C404.375549,198.307388 408.788879,189.576218 418.309814,183.737900 
	C429.273529,177.014877 447.921814,178.103134 458.095306,185.982178 
	C459.642365,187.180374 461.074036,188.692093 462.122223,190.337158 
	C464.652557,194.308319 464.011169,198.916321 460.547028,202.143372 
	C457.104614,205.350189 453.174225,206.073502 449.189880,203.254501 
	C444.538330,199.963409 439.575439,197.928909 433.803345,198.589508 
	C429.378082,199.095963 425.613403,200.767365 424.755249,205.702560 
	C423.923370,210.486679 426.821228,213.290939 430.779144,214.903015 
	C436.471680,217.221634 442.415741,218.931488 448.075165,221.321060 
	C462.861908,227.564499 467.454437,235.010544 466.854248,251.565765 
z"/>
<path fill="#62B331" opacity="1.000000" stroke="none" 
	d="
M905.478149,273.793396 
	C903.787781,272.416962 902.444092,271.213440 901.060303,269.973999 
	C884.753296,281.925598 865.658325,271.103424 862.765381,251.355209 
	C861.666809,243.856522 862.646423,236.774658 865.896790,229.968719 
	C872.233521,216.700317 884.438477,212.508331 899.966736,218.652359 
	C899.966736,209.045761 899.897827,199.637894 899.992676,190.231705 
	C900.049255,184.618652 902.359131,181.580811 906.879456,180.658112 
	C913.557739,179.294937 918.012695,183.047150 918.039795,190.351593 
	C918.119507,211.837982 918.088135,233.324783 918.106506,254.811417 
	C918.109314,258.142548 918.172668,261.473785 918.159485,264.804749 
	C918.127380,272.905273 913.689819,276.191162 905.478149,273.793396 
M880.877441,250.273682 
	C882.364868,254.929245 885.519775,257.600403 890.434631,257.361237 
	C895.360046,257.121552 898.553223,253.913834 899.415649,249.400467 
	C900.067200,245.990723 899.863342,242.071228 898.813049,238.768936 
	C897.453308,234.493713 893.784912,232.202194 889.087402,232.681702 
	C884.615967,233.138123 881.756165,235.917542 880.958984,240.216095 
	C880.401184,243.223846 880.723694,246.394821 880.877441,250.273682 
z"/>
<path fill="#0686DD" opacity="1.000000" stroke="none" 
	d="
M962.119263,202.997772 
	C962.119751,198.005447 961.964966,193.504135 962.163818,189.018478 
	C962.401917,183.649170 966.017029,180.327286 971.176758,180.370193 
	C976.316528,180.412933 980.049683,183.788345 980.069763,189.116791 
	C980.166931,214.917404 980.100220,240.718643 980.090881,266.519653 
	C980.089417,270.560364 977.953918,273.036316 974.273438,274.300201 
	C969.320557,276.000977 966.009094,273.634064 963.470154,269.676117 
	C945.960083,282.352417 927.014404,270.272675 925.153259,250.061737 
	C924.761353,245.805496 924.870483,241.352966 925.663208,237.163940 
	C928.982849,219.622559 944.827332,210.405075 962.120605,218.916885 
	C962.120605,213.534210 962.120605,208.514969 962.119263,202.997772 
M947.490051,233.838882 
	C942.181946,238.430923 940.636780,245.681534 943.668457,251.771378 
	C945.804382,256.062073 949.959900,258.090942 954.364014,256.993225 
	C960.556396,255.449768 963.904541,247.844711 961.773254,240.163406 
	C960.100342,234.134033 954.545715,231.399460 947.490051,233.838882 
z"/>
<path fill="#092550" opacity="1.000000" stroke="none" 
	d="
M527.775513,259.469849 
	C527.739380,236.369095 527.701294,213.730484 527.683350,191.091888 
	C527.677795,184.068863 530.728088,180.390335 536.549561,180.305389 
	C542.130920,180.223923 545.741089,184.310028 545.780457,190.941269 
	C545.835815,200.252396 545.794434,209.564072 545.794434,219.357956 
	C547.003906,218.844574 547.875000,218.559860 548.664917,218.126923 
	C562.311157,210.647354 577.699402,217.513336 579.664490,232.949295 
	C581.105591,244.269638 580.648743,255.861191 580.584900,267.329376 
	C580.558228,272.121674 576.243408,275.133789 571.167603,274.923767 
	C566.425842,274.727539 563.050903,271.574677 562.909119,266.680573 
	C562.716370,260.027679 562.907898,253.364517 562.820435,246.707245 
	C562.787842,244.223068 562.630981,241.706512 562.179138,239.269928 
	C561.523010,235.731583 559.596924,233.044983 555.761719,232.571274 
	C551.821594,232.084595 548.833069,234.031448 547.315613,237.463409 
	C546.277588,239.810974 545.885681,242.585602 545.805481,245.187820 
	C545.595520,252.006622 545.818542,258.837830 545.671204,265.659821 
	C545.541992,271.640472 541.909424,275.093781 536.278809,274.928253 
	C530.798462,274.767151 527.925171,271.555328 527.804749,265.425171 
	C527.768738,263.594666 527.787537,261.763123 527.775513,259.469849 
z"/>
<path fill="#7143C5" opacity="1.000000" stroke="none" 
	d="
M994.354980,300.881927 
	C989.710144,298.808533 986.157166,296.209686 985.678955,291.045197 
	C985.037354,284.116150 991.379272,278.956512 997.214355,282.183990 
	C1006.298035,287.208344 1014.643433,284.140137 1015.850403,268.791321 
	C1014.497681,269.080261 1013.255249,269.367462 1012.004150,269.609375 
	C1002.829895,271.382965 994.377441,267.159027 990.980652,258.390320 
	C986.675659,247.277023 986.824280,235.541168 987.694519,223.901749 
	C988.042786,219.243591 992.295715,216.654541 997.160950,217.013626 
	C1001.727356,217.350647 1004.608215,220.295090 1004.800476,225.265259 
	C1005.006531,230.589203 1004.829224,235.927475 1005.005798,241.253311 
	C1005.082214,243.557816 1005.073181,246.147369 1006.112122,248.059036 
	C1007.170471,250.006607 1009.391846,252.425674 1011.244324,252.550201 
	C1013.408508,252.695679 1016.692749,251.145813 1017.756775,249.320541 
	C1019.524353,246.288330 1020.237549,242.500870 1020.792908,238.937714 
	C1021.508728,234.344940 1021.501221,229.644485 1022.042908,225.018204 
	C1022.692017,219.474411 1026.645386,216.434052 1032.117676,216.987366 
	C1036.966553,217.477615 1040.347046,221.237213 1039.625854,226.368362 
	C1037.171387,243.827820 1035.039307,261.370300 1031.567627,278.636444 
	C1029.052612,291.144318 1021.893372,300.781525 1007.951050,302.363800 
	C1003.648010,302.852173 999.137451,301.511444 994.354980,300.881927 
z"/>
<path fill="#072551" opacity="1.000000" stroke="none" 
	d="
M689.431274,219.467880 
	C702.170227,227.529526 706.413696,248.350082 696.715210,263.170959 
	C690.233093,273.076630 680.391663,276.649994 668.905273,274.948669 
	C657.769409,273.299286 650.639343,266.528229 647.454529,255.825470 
	C643.421143,242.270874 647.397034,228.124084 657.145508,220.353088 
	C665.576233,213.632553 678.134644,213.201675 689.431274,219.467880 
M667.445251,255.061508 
	C674.448425,259.493286 681.741333,257.303375 683.562134,249.710709 
	C684.376160,246.316269 684.118774,242.374313 683.274475,238.945099 
	C682.179565,234.498062 678.582703,232.078613 673.946777,232.067474 
	C669.270508,232.056244 665.908875,234.685074 664.562683,238.989349 
	C662.874512,244.387573 662.758118,249.858765 667.445251,255.061508 
z"/>
<path fill="#072550" opacity="1.000000" stroke="none" 
	d="
M610.303406,275.108948 
	C591.894531,272.209991 582.227966,256.362762 586.732849,237.170761 
	C590.720764,220.181259 606.142029,211.162155 622.597656,216.195312 
	C639.760925,221.444885 647.527039,244.074173 637.909790,261.036163 
	C631.937317,271.569946 622.639954,275.895386 610.303406,275.108948 
M623.987854,247.083008 
	C623.640503,244.136169 623.819397,240.998383 622.834167,238.282974 
	C620.893005,232.932831 614.528198,230.638916 609.588501,233.005295 
	C604.662048,235.365295 602.120422,241.584030 603.438416,248.053299 
	C604.576416,253.639053 608.092957,257.154999 612.932678,257.545929 
	C618.055420,257.959778 621.730713,254.727692 623.987854,247.083008 
z"/>
<path fill="#FDAF12" opacity="1.000000" stroke="none" 
	d="
M843.141113,273.104248 
	C842.023621,271.704437 841.185059,270.540100 840.221375,269.202026 
	C835.230225,273.413116 829.686035,275.745728 823.140381,274.456696 
	C813.678650,272.593384 807.545837,266.230835 806.520203,255.187180 
	C805.568787,244.941833 805.830017,234.560394 805.989929,224.245575 
	C806.066101,219.333740 809.657776,216.792465 814.895874,216.930832 
	C819.646545,217.056351 822.626465,219.773376 822.792480,224.756439 
	C823.019775,231.579391 822.829163,238.415298 822.938232,245.243744 
	C822.972351,247.384720 822.767822,249.910706 823.796021,251.560242 
	C825.146484,253.726974 827.461060,256.375214 829.632690,256.647217 
	C831.861389,256.926361 835.113159,255.149658 836.639404,253.247437 
	C838.243408,251.248322 838.842407,248.059830 838.981140,245.345108 
	C839.303772,239.031387 839.035828,232.689499 839.100525,226.359970 
	C839.165344,220.015747 841.916748,216.984924 847.516235,216.901932 
	C853.036682,216.820084 856.240234,219.920349 856.298401,226.053040 
	C856.424622,239.371979 856.489685,252.696625 856.229248,266.012085 
	C856.081421,273.573151 850.383972,276.631012 843.141113,273.104248 
z"/>
<path fill="#082551" opacity="1.000000" stroke="none" 
	d="
M484.341248,219.275162 
	C494.767883,213.341125 504.999725,213.395065 515.093201,218.936310 
	C520.540222,221.926682 522.463989,226.445618 520.829651,230.847946 
	C518.844421,236.195587 512.543640,238.697647 507.423096,234.563171 
	C502.611084,230.677811 497.382935,231.238586 493.286438,234.860565 
	C489.008575,238.642899 487.719757,245.779877 490.290955,251.448074 
	C492.512207,256.344879 497.110138,258.968323 502.518097,257.850616 
	C504.866913,257.365173 507.140930,256.053314 509.198608,254.728119 
	C512.652893,252.503479 515.826416,252.624222 518.735840,255.395081 
	C521.640808,258.161774 523.001038,261.700317 520.789246,265.296692 
	C519.286255,267.740570 517.036377,270.078125 514.568848,271.517395 
	C500.581024,279.676270 478.871887,275.955444 472.759705,256.137390 
	C468.380585,241.938431 472.068420,228.700806 484.341248,219.275162 
z"/>
<path fill="#092651" opacity="1.000000" stroke="none" 
	d="
M707.254700,256.665710 
	C707.207153,234.720627 707.181763,213.238434 707.140930,191.756302 
	C707.132996,187.611404 707.602722,183.631958 711.741699,181.428101 
	C718.343262,177.912979 725.139832,182.091385 725.176086,189.792419 
	C725.271667,210.108780 725.250427,230.425842 725.219604,250.742538 
	C725.214111,254.339584 725.380981,257.136841 729.446472,259.284698 
	C731.459961,260.348450 732.454468,264.918823 732.425964,267.888428 
	C732.386292,272.016663 729.057129,274.157867 725.117065,274.891479 
	C717.246155,276.356964 709.932251,271.277924 708.099854,263.062622 
	C707.666504,261.119690 707.539490,259.108429 707.254700,256.665710 
z"/>
<path fill="#0C2753" opacity="1.000000" stroke="none" 
	d="
M86.903534,325.983032 
	C89.470932,324.964111 91.932747,324.208252 94.782181,323.758942 
	C95.513710,331.429138 97.739792,333.324219 105.400352,331.947449 
	C141.067566,325.537231 173.941650,333.577789 205.132004,350.813416 
	C208.578812,352.718079 212.386322,353.970032 216.253601,355.669952 
	C217.476685,355.568604 218.472702,355.322052 219.891388,355.216980 
	C226.125748,352.860565 231.937454,350.362640 237.863068,348.260803 
	C238.429184,350.778625 238.881393,352.900330 239.280365,355.362183 
	C239.152634,356.383087 239.078171,357.063843 239.003693,357.744598 
	C238.392563,358.001495 237.710175,358.157196 237.180710,358.530060 
	C224.084839,367.753601 211.857437,365.882294 198.253799,358.117493 
	C169.528061,341.721222 138.550690,335.275879 105.473427,341.556396 
	C94.092346,343.717377 86.857941,337.505402 86.903534,325.983032 
z"/>
<path fill="#E0E4EC" opacity="1.000000" stroke="none" 
	d="
M270.888763,374.875854 
	C276.562408,375.579956 282.226929,376.372559 287.912567,376.960876 
	C292.690002,377.455231 297.497467,377.656799 302.278229,378.124908 
	C303.120575,378.207367 303.896881,378.964020 304.622742,380.224579 
	C247.253525,386.665619 189.942184,386.108307 132.618286,381.203369 
	C132.540588,380.489685 132.462875,379.775970 132.385178,379.062286 
	C136.560120,378.379578 140.721802,377.206024 144.912140,377.092743 
	C175.155182,376.275238 205.403152,375.621399 235.652924,375.117981 
	C237.627655,375.085144 239.630249,376.727081 242.209106,377.942322 
	C244.043503,378.168915 245.288681,378.043121 246.843903,377.840271 
	C247.407593,377.439026 247.661240,377.114899 247.860779,376.848816 
	C247.806671,376.906921 247.709824,376.781128 248.120941,376.820221 
	C251.378845,376.241608 254.213028,375.198425 257.075623,375.113495 
	C260.683350,375.006531 264.314240,375.682037 268.261566,375.989258 
	C269.354919,375.597656 270.121826,375.236725 270.888763,374.875854 
z"/>
<path fill="#082552" opacity="1.000000" stroke="none" 
	d="
M87.383926,245.477875 
	C89.262115,244.953400 91.110344,244.177200 93.023857,243.949402 
	C100.133736,243.102997 103.757172,247.262009 103.596725,256.797943 
	C100.729034,265.385956 94.289566,267.842743 86.889061,268.917023 
	C72.789726,265.809570 64.439445,256.852234 61.908230,242.940964 
	C58.867195,226.227844 65.374840,212.962006 78.367973,202.628601 
	C80.689651,200.782150 83.463860,199.504715 86.350769,197.871613 
	C86.756714,202.028030 86.841011,206.277390 86.561806,211.004303 
	C76.988701,217.466263 72.218330,225.977051 72.730598,236.926437 
	C73.020912,243.131653 75.338303,248.700104 81.424767,252.045670 
	C83.624214,249.621582 85.504066,247.549728 87.383926,245.477875 
z"/>
<path fill="#082450" opacity="1.000000" stroke="none" 
	d="
M349.154877,211.909607 
	C349.156342,207.614395 349.157837,203.319168 349.233582,198.577972 
	C364.648010,206.213882 373.503571,218.722229 373.900726,236.210770 
	C374.268890,252.424103 365.348785,263.981110 349.600403,268.905548 
	C341.706512,268.408020 335.205078,265.802277 332.413788,258.138062 
	C330.818390,253.757355 331.210480,249.194824 335.281677,245.919312 
	C339.405304,242.601608 343.622803,243.675217 348.294922,246.380585 
	C350.323944,248.455246 351.830322,250.154694 353.325195,251.841187 
	C358.607300,248.975525 361.103699,244.675461 362.047028,239.370255 
	C363.951324,228.661057 358.952698,218.078598 349.154877,211.909607 
z"/>
<path fill="#0C2753" opacity="1.000000" stroke="none" 
	d="
M340.883301,323.769196 
	C343.302063,324.324432 345.720856,324.879669 348.553345,325.524750 
	C349.923553,335.126648 344.087677,341.868408 334.706635,341.890503 
	C332.406403,341.895935 330.085327,341.453247 327.807007,341.035492 
	C307.214233,337.259644 287.117126,339.749939 266.860077,345.748627 
	C266.432434,345.759583 266.201172,345.777832 266.150848,345.384247 
	C265.612030,342.291016 265.123505,339.591339 264.972137,336.701294 
	C286.578064,330.134155 308.088531,327.684937 330.152863,331.886841 
	C338.015594,333.384216 340.035278,331.530487 340.883301,323.769196 
z"/>
<path fill="#0A87DE" opacity="1.000000" stroke="none" 
	d="
M55.574070,128.538239 
	C60.071648,133.557053 64.768288,135.114914 70.544968,131.252914 
	C71.447754,130.649353 73.732040,130.500549 74.079018,131.015854 
	C74.781357,132.058868 75.160759,133.949356 74.677353,135.054932 
	C72.200104,140.720505 72.988434,145.259750 77.618744,149.691116 
	C80.557793,152.503876 79.224899,155.259613 75.134583,154.854065 
	C68.926086,154.238495 65.080009,156.421661 62.776131,162.117386 
	C62.309441,163.271149 60.598625,164.729721 59.598877,164.632568 
	C58.599049,164.535431 57.146221,162.755722 56.971882,161.556564 
	C55.978584,154.724457 51.725147,152.004959 45.362057,150.875153 
	C41.478783,150.185654 40.915157,147.504456 44.330070,145.669495 
	C50.473850,142.368195 51.890732,137.824890 50.651039,131.373260 
	C50.031651,128.149826 52.005589,126.721077 55.574070,128.538239 
z"/>
<path fill="#0C2652" opacity="1.000000" stroke="none" 
	d="
M163.561615,241.281143 
	C160.829514,236.270370 160.570099,231.448761 162.708694,226.564987 
	C165.427246,220.356842 171.256470,216.990753 177.971619,217.647247 
	C184.101700,218.246536 189.835098,223.404968 191.200638,229.549576 
	C192.727676,236.420898 190.163193,242.557419 184.205017,246.289185 
	C178.356064,249.952545 172.035904,249.519104 166.683472,244.965149 
	C165.564590,244.013168 164.729416,242.727768 163.561615,241.281143 
M177.370010,225.387039 
	C173.853455,223.564194 171.440811,224.808640 170.848907,228.450989 
	C170.632812,229.780746 171.955200,231.961594 173.206207,232.737152 
	C174.194016,233.349533 177.196503,232.797012 177.466415,232.074921 
	C178.158005,230.224701 177.825378,227.991623 177.370010,225.387039 
z"/>
<path fill="#0C2652" opacity="1.000000" stroke="none" 
	d="
M277.246094,235.354340 
	C275.067047,244.301010 267.922028,249.838852 260.432922,248.722382 
	C252.466003,247.534683 246.846832,240.571701 247.341568,232.500259 
	C247.846191,224.267532 254.045303,217.944244 261.963470,217.585510 
	C271.063507,217.173248 277.649231,224.631775 277.246094,235.354340 
M265.724945,229.421844 
	C264.598236,225.100784 262.117035,223.304367 259.496307,225.202484 
	C258.332092,226.045670 257.190857,227.892685 257.271851,229.208176 
	C257.351959,230.508972 259.145416,232.847031 259.907013,232.739777 
	C261.861481,232.464508 263.660461,231.084900 265.724945,229.421844 
z"/>
<path fill="#FDAF12" opacity="1.000000" stroke="none" 
	d="
M266.201172,345.777832 
	C266.201172,345.777832 266.432434,345.759583 266.468506,345.869873 
	C267.945526,355.344452 269.386505,364.708740 270.858124,374.474426 
	C270.121826,375.236725 269.354919,375.597656 268.057922,375.720947 
	C263.636810,372.595764 259.745758,369.708191 255.334244,366.434357 
	C252.688232,370.025146 250.199036,373.403137 247.709839,376.781128 
	C247.709824,376.781128 247.806671,376.906921 247.544693,376.901978 
	C247.033096,377.237122 246.783478,377.577240 246.533859,377.917358 
	C245.288681,378.043121 244.043503,378.168915 242.551941,378.109070 
	C241.343658,371.445282 240.381760,364.967163 239.211777,358.116821 
	C239.078171,357.063843 239.152634,356.383087 239.658295,355.357849 
	C248.793365,351.934875 257.497253,348.856354 266.201172,345.777832 
z"/>
<path fill="#0A87DE" opacity="1.000000" stroke="none" 
	d="
M323.490967,71.566872 
	C320.833557,76.026779 318.439728,80.221107 315.893433,84.320763 
	C313.485657,88.197372 309.603302,89.487724 306.118866,87.760315 
	C302.507996,85.970222 301.296936,82.268272 303.369293,77.976425 
	C307.566254,69.284531 311.883484,60.646824 316.350037,52.090618 
	C318.630127,47.722851 323.504089,46.300468 327.377106,48.464485 
	C331.278320,50.644264 332.802032,55.542328 330.574860,59.670670 
	C328.443115,63.622181 325.996307,67.403717 323.490967,71.566872 
z"/>
<path fill="#FEB016" opacity="1.000000" stroke="none" 
	d="
M144.542786,54.420658 
	C146.921295,59.586079 149.225266,64.374298 151.330154,69.248489 
	C153.298676,73.806808 152.060440,77.861443 148.429932,79.491867 
	C144.639160,81.194283 140.972488,79.749985 138.534683,75.424713 
	C134.054016,67.474846 129.612045,59.502533 125.231300,51.497231 
	C122.751060,46.964867 124.041718,42.085606 128.150604,39.873245 
	C132.376190,37.598053 137.097046,39.125309 139.489731,43.730606 
	C141.247818,47.114464 142.759735,50.626221 144.542786,54.420658 
z"/>
<path fill="#0C2652" opacity="1.000000" stroke="none" 
	d="
M205.735413,274.776642 
	C200.846756,270.415070 199.157318,264.530060 198.350388,258.392517 
	C198.152435,256.886780 199.049759,254.526855 200.225281,253.763458 
	C201.265244,253.088104 203.708420,253.599350 204.990158,254.426483 
	C214.214310,260.379181 223.369781,259.799438 232.761780,254.876251 
	C234.424591,254.004623 237.339569,253.145691 238.319885,253.944824 
	C239.567322,254.961746 240.282761,257.956635 239.735077,259.601959 
	C238.087891,264.550262 235.716309,269.257446 233.038376,274.102539 
	C223.396194,265.023285 213.825974,265.249084 205.735413,274.776642 
z"/>
<path fill="#F55172" opacity="1.000000" stroke="none" 
	d="
M233.357635,39.727562 
	C227.656082,42.034039 222.590637,41.906437 218.243973,37.698025 
	C214.346024,33.924042 212.960190,29.358683 214.652603,24.078575 
	C216.504913,18.299641 221.278900,14.837239 227.333572,14.785762 
	C232.946518,14.738040 237.997467,18.149792 239.658875,23.111073 
	C241.781555,29.449785 239.743591,35.076271 233.357635,39.727562 
z"/>
<path fill="#F55172" opacity="1.000000" stroke="none" 
	d="
M91.923119,88.889816 
	C97.973419,93.887283 103.750679,98.636658 109.457748,103.468910 
	C113.353706,106.767662 114.136658,110.304710 111.569473,113.361336 
	C108.541862,116.966179 105.162605,116.071053 101.853882,113.699326 
	C95.912025,109.440132 89.972565,105.177048 84.070404,100.863190 
	C79.959167,97.858315 79.018387,94.270149 81.248657,90.566017 
	C83.439644,86.927132 86.607986,86.350075 91.923119,88.889816 
z"/>
<path fill="#F55172" opacity="1.000000" stroke="none" 
	d="
M353.585785,115.551147 
	C350.670746,117.507988 348.170410,119.466873 345.426941,120.986977 
	C342.357513,122.687683 339.200500,122.573616 337.037842,119.430145 
	C334.938690,116.378983 335.501251,113.328171 338.346100,111.028282 
	C344.407684,106.127876 350.496674,101.249718 356.767487,96.624222 
	C360.449646,93.908165 364.271851,94.749641 366.745270,98.259338 
	C369.125427,101.636681 368.408630,105.530060 364.666534,108.203529 
	C361.160675,110.708221 357.490845,112.983406 353.585785,115.551147 
z"/>
<path fill="#66B435" opacity="1.000000" stroke="none" 
	d="
M380.890503,138.827667 
	C386.847412,139.507706 390.588806,142.428848 391.737885,147.929718 
	C392.767212,152.857361 391.389160,157.142242 387.002258,160.083878 
	C382.814056,162.892288 377.438354,162.780014 373.492218,159.855011 
	C369.600250,156.970139 367.965363,151.903732 369.332153,146.963104 
	C370.694519,142.038483 374.285217,139.411407 380.890503,138.827667 
z"/>
<path fill="#2694E0" opacity="1.000000" stroke="none" 
	d="
M950.046997,331.769562 
	C946.725647,331.746857 943.830383,332.069366 941.092712,331.554474 
	C939.685730,331.289795 938.559692,329.531586 937.306702,328.448303 
	C938.566589,327.361450 939.806702,325.358307 941.089355,325.330719 
	C952.904236,325.076477 964.728271,325.069794 976.543762,325.295532 
	C977.747986,325.318542 978.914062,327.335022 980.097839,328.426453 
	C978.735352,329.532379 977.405579,331.544983 976.005005,331.595551 
	C967.525146,331.901825 959.028992,331.759949 950.046997,331.769562 
z"/>
<path fill="#1F325B" opacity="1.000000" stroke="none" 
	d="
M574.820740,322.233398 
	C575.357544,319.349945 575.832336,314.862396 576.451599,314.842377 
	C580.612061,314.707886 584.836182,315.356720 588.955994,316.173492 
	C589.752747,316.331482 591.003601,318.880554 590.651428,319.424866 
	C587.308228,324.591705 594.395630,329.496826 590.871582,334.526520 
	C588.885986,337.360504 578.694397,339.352081 576.054810,337.180298 
	C575.241272,336.510956 574.937988,334.890106 574.888794,333.684998 
	C574.739563,330.027283 574.829041,326.359802 574.820740,322.233398 
M579.142517,333.145355 
	C581.775818,333.018036 584.429199,333.015839 587.016724,332.602325 
	C587.333984,332.551636 587.654114,329.323303 587.372070,329.220825 
	C585.017273,328.365082 582.525391,327.879395 580.061890,327.341949 
	C579.846191,327.294861 579.537415,327.674652 578.958923,328.070068 
	C578.958923,329.338409 578.958923,330.814392 579.142517,333.145355 
M583.088196,323.974823 
	C584.265137,322.594604 585.442139,321.214386 586.619080,319.834137 
	C584.265076,319.072418 581.911133,318.310699 578.981689,317.362762 
	C579.339600,320.989716 577.424255,324.415497 583.088196,323.974823 
z"/>
<path fill="#FC7F9C" opacity="1.000000" stroke="none" 
	d="
M284.802795,261.269165 
	C283.166718,269.206512 275.434937,272.901062 268.974884,268.803192 
	C267.058136,267.587311 265.104858,264.687134 265.143250,262.594940 
	C265.186127,260.256317 266.917542,257.143646 268.889923,255.796799 
	C274.734589,251.805664 281.734894,254.320755 284.802795,261.269165 
z"/>
<path fill="#F35678" opacity="1.000000" stroke="none" 
	d="
M205.917404,275.095581 
	C213.825974,265.249084 223.396194,265.023285 232.762299,274.332825 
	C225.430176,283.044250 214.059433,283.421631 205.917404,275.095581 
z"/>
<path fill="#FC7F9C" opacity="1.000000" stroke="none" 
	d="
M157.909302,268.347778 
	C154.531784,265.762360 152.701309,262.842651 154.794052,259.098267 
	C157.037369,255.084442 160.793503,253.393433 165.336197,254.103165 
	C169.280563,254.719406 172.771423,256.374329 173.864243,260.659119 
	C174.940445,264.878815 171.650253,269.437500 166.909866,269.797729 
	C164.062164,270.014130 161.123215,269.029388 157.909302,268.347778 
z"/>
<path fill="#273A61" opacity="1.000000" stroke="none" 
	d="
M725.601318,323.999390 
	C727.100586,324.658478 728.178345,325.317230 729.256165,325.975983 
	C728.225159,326.573151 727.249573,327.510803 726.150452,327.689941 
	C724.378784,327.978729 722.525635,327.767487 720.363953,327.767487 
	C720.363953,329.789459 720.363953,331.516022 720.363953,333.761353 
	C723.281311,333.761353 726.083130,333.612061 728.851746,333.849426 
	C729.717285,333.923615 730.493286,335.040863 731.310303,335.680634 
	C730.491455,336.346100 729.706787,337.529480 728.847778,337.586182 
	C725.370850,337.815735 721.850830,337.906525 718.393127,337.571014 
	C717.464661,337.480988 716.013550,335.729645 715.973877,334.695923 
	C715.750671,328.884918 715.759094,323.054474 716.017639,317.245300 
	C716.062805,316.232391 717.599731,314.549042 718.579407,314.447571 
	C722.034790,314.089691 725.555176,314.158875 729.032227,314.371490 
	C729.777222,314.417053 730.443909,315.742737 731.146667,316.478699 
	C730.442627,317.046906 729.768982,318.053986 729.029114,318.105286 
	C726.229858,318.299347 723.409058,318.183350 720.321045,318.183350 
	C720.321045,320.142731 720.321045,321.729492 720.321045,323.740051 
	C721.982849,323.828644 723.581360,323.913879 725.601318,323.999390 
z"/>
<path fill="#24355C" opacity="1.000000" stroke="none" 
	d="
M626.895386,337.676666 
	C625.475464,337.490234 624.291748,336.959076 623.444397,337.289734 
	C620.017639,338.627014 617.107117,337.980347 615.114258,335.021637 
	C612.814209,331.606781 612.550293,327.783752 614.963379,324.297638 
	C616.926697,321.461395 619.721191,320.271790 623.197388,321.754028 
	C623.629822,321.938416 624.152405,321.911163 624.969910,322.031525 
	C624.969910,319.954132 624.814331,317.970795 625.046326,316.033905 
	C625.139465,315.255676 625.993896,314.120697 626.666626,313.988800 
	C627.308105,313.863007 628.824829,314.829132 628.826599,315.319336 
	C628.852722,322.551422 628.702698,329.784515 628.518616,337.015442 
	C628.512329,337.263306 627.714966,337.490997 626.895386,337.676666 
M624.746094,327.005554 
	C621.257629,323.951263 618.460754,324.183563 617.756714,327.848389 
	C617.431824,329.539307 618.191223,331.664825 619.072876,333.252411 
	C619.436768,333.907776 622.241760,334.180573 622.510925,333.745514 
	C623.622986,331.947815 624.189148,329.812347 624.746094,327.005554 
z"/>
<path fill="#24355C" opacity="1.000000" stroke="none" 
	d="
M641.713013,321.399109 
	C642.789001,320.391418 643.521851,319.256348 644.162048,318.071228 
	C644.922241,316.664154 645.602722,315.214050 646.317749,313.782623 
	C646.939636,315.279053 648.031799,316.755066 648.097839,318.275635 
	C648.321289,323.425995 648.206726,328.592316 648.169434,333.752136 
	C648.151489,336.231598 648.289062,338.991638 644.369934,336.865417 
	C643.938599,336.631439 643.089050,336.891052 642.557739,337.163818 
	C639.399963,338.784668 636.055176,338.307098 634.673828,335.427399 
	C633.311462,332.587646 632.765442,328.751465 633.438721,325.700531 
	C634.198608,322.257294 637.479004,320.606567 641.713013,321.399109 
M636.860413,327.237823 
	C636.739014,328.201660 636.170044,329.479309 636.583130,330.068329 
	C637.666870,331.614044 639.178711,332.859619 640.520020,334.224762 
	C641.732849,332.740540 643.462524,331.413544 643.978577,329.717316 
	C644.328613,328.566833 643.258301,325.960876 642.317566,325.676117 
	C640.833679,325.226898 638.924927,326.181122 636.860413,327.237823 
z"/>
<path fill="#1F325B" opacity="1.000000" stroke="none" 
	d="
M864.669617,337.760681 
	C864.671753,333.145813 864.665100,328.996582 864.678284,324.847412 
	C864.685242,322.647247 864.865784,320.656036 867.994202,321.980682 
	C868.523560,322.204834 869.319885,322.240662 869.826599,322.005432 
	C873.605469,320.251068 877.314392,321.002899 878.772156,324.562256 
	C879.933350,327.397400 879.953674,331.492035 878.764587,334.301300 
	C877.199707,337.998474 873.346069,338.921021 868.566895,336.652740 
	C868.566895,338.786133 868.800415,340.391113 868.489685,341.882690 
	C868.259888,342.985962 867.321350,343.941620 866.698547,344.963013 
	C866.017639,343.879211 865.098816,342.870392 864.726624,341.689301 
	C864.393982,340.633759 864.664612,339.388092 864.669617,337.760681 
M876.024475,331.169250 
	C875.147217,329.106476 874.422791,326.945953 873.231812,325.083801 
	C873.048462,324.797058 869.655090,325.742249 869.574219,326.357941 
	C869.278503,328.608185 868.959839,331.553406 870.134766,333.130493 
	C871.776123,335.333618 874.288574,334.487152 876.024475,331.169250 
z"/>
<path fill="#24355C" opacity="1.000000" stroke="none" 
	d="
M824.528320,317.106842 
	C824.679688,318.390045 824.584290,319.429657 824.488892,320.469269 
	C823.494629,320.185638 822.393494,320.087402 821.524292,319.586639 
	C817.460571,317.245422 814.130615,317.706177 812.004822,321.036346 
	C809.737488,324.588196 810.421448,331.275635 813.803345,332.600952 
	C816.009155,333.465424 818.952515,332.478210 821.561462,332.269257 
	C822.701050,332.177979 823.830383,331.958405 824.964417,331.797119 
	C824.590698,333.037781 824.598755,334.699799 823.776184,335.445068 
	C820.515259,338.399414 816.599854,338.874542 812.674683,336.979553 
	C808.164917,334.802429 806.326660,330.720367 806.304749,325.965881 
	C806.283691,321.389923 808.059509,317.420197 812.338379,315.271698 
	C816.549377,313.157349 820.683899,313.459167 824.528320,317.106842 
z"/>
<path fill="#293A65" opacity="1.000000" stroke="none" 
	d="
M850.932190,321.527710 
	C858.228516,320.715240 860.432068,322.650970 860.500122,329.448303 
	C860.514954,330.933289 860.473206,332.444611 860.728577,333.896088 
	C861.272705,336.988495 860.924133,338.678619 857.233582,336.902222 
	C856.581848,336.588531 855.465820,337.138489 854.595886,337.396698 
	C850.490112,338.615387 847.220337,337.304626 846.713501,333.979431 
	C846.032410,329.511627 848.914917,328.206451 852.626587,327.829224 
	C853.720032,327.718048 854.816101,327.633575 855.911011,327.536865 
	C855.996338,327.012329 856.081665,326.487793 856.166931,325.963257 
	C854.775330,325.656189 853.396606,325.220459 851.988403,325.078613 
	C850.608643,324.939606 849.198792,325.099792 847.802124,325.128662 
	C848.727966,323.972015 849.653870,322.815399 850.932190,321.527710 
z"/>
<path fill="#F76280" opacity="1.000000" stroke="none" 
	d="
M473.868744,325.104248 
	C476.001770,325.109039 477.786316,324.730957 479.274658,325.232300 
	C480.588013,325.674652 482.410065,327.048645 482.472382,328.102112 
	C482.539673,329.239777 480.862030,331.486084 479.882660,331.521698 
	C471.785034,331.816254 463.669128,331.823669 455.570190,331.563019 
	C454.682709,331.534485 452.902100,328.800659 453.222717,328.138611 
	C453.857574,326.827820 455.625854,325.329498 457.006439,325.246094 
	C462.451111,324.917084 467.927094,325.106598 473.868744,325.104248 
z"/>
<path fill="#293A65" opacity="1.000000" stroke="none" 
	d="
M754.321289,332.435913 
	C756.617920,332.932709 758.725464,333.026245 760.827332,333.192688 
	C761.700012,333.261780 762.560303,333.486572 763.426270,333.640564 
	C763.206482,334.489349 763.105347,336.017365 762.748108,336.079773 
	C759.817810,336.591949 756.591736,337.701813 753.936035,336.944580 
	C750.183228,335.874542 749.200684,332.183777 749.619080,328.404266 
	C750.050781,324.504456 752.249573,321.440247 756.062317,321.400818 
	C758.578003,321.374756 761.827576,322.995575 763.485168,324.950317 
	C766.223511,328.179474 764.574646,330.651672 760.335510,330.917053 
	C758.251282,331.047546 756.197571,331.664948 754.321289,332.435913 
z"/>
<path fill="#253760" opacity="1.000000" stroke="none" 
	d="
M773.022339,322.466125 
	C776.175476,322.183594 780.156616,320.605804 782.266602,321.954773 
	C784.760193,323.549011 785.637329,327.671539 787.517273,331.277283 
	C788.740967,328.364288 789.711060,325.699249 790.998291,323.197388 
	C791.409424,322.398254 792.661438,322.031769 793.528809,321.467407 
	C793.825378,322.440918 794.625244,323.606232 794.338989,324.357635 
	C792.035400,330.402588 789.661926,336.431244 786.972656,342.310608 
	C786.406006,343.549286 784.548035,344.459534 783.094666,344.918945 
	C782.375793,345.146210 781.223938,344.003632 780.267944,343.480835 
	C780.763367,342.717102 781.102661,341.496216 781.779907,341.264923 
	C785.724365,339.918060 785.696350,337.393097 784.268921,334.203827 
	C782.711670,330.724518 781.262390,327.196838 779.726685,323.598083 
	C778.023438,324.112854 776.439819,324.591461 774.327637,324.788940 
	C773.540283,323.827271 773.281311,323.146698 773.022339,322.466125 
z"/>
<path fill="#253760" opacity="1.000000" stroke="none" 
	d="
M839.317993,334.374390 
	C839.342041,332.126373 839.725830,330.204163 839.274841,328.503326 
	C838.926636,327.189972 837.531616,326.154114 836.601990,324.994873 
	C835.414795,326.116455 833.603149,327.047241 833.188416,328.404785 
	C832.582336,330.388519 833.198914,332.714691 832.853027,334.822479 
	C832.685486,335.843536 831.514404,336.699921 830.797668,337.630859 
	C830.188721,336.789856 829.071472,335.960449 829.052063,335.105957 
	C828.908264,328.796661 828.911499,322.480469 829.082214,316.172211 
	C829.103088,315.401794 830.392761,314.665771 831.094543,313.913818 
	C831.706848,314.741791 832.707214,315.508636 832.849243,316.410675 
	C833.128723,318.185760 832.931519,320.035919 832.931519,320.625336 
	C836.438110,321.706482 841.153076,321.907684 841.770386,323.601898 
	C843.215759,327.568756 842.737976,332.249969 842.882141,336.647095 
	C842.891846,336.942810 841.138123,337.699249 840.981140,337.528259 
	C840.273743,336.757965 839.846558,335.730377 839.317993,334.374390 
z"/>
<path fill="#293A65" opacity="1.000000" stroke="none" 
	d="
M907.685852,323.281616 
	C911.490540,329.691498 911.490540,329.691498 899.379211,331.309937 
	C899.273682,331.784790 899.168091,332.259644 899.062561,332.734467 
	C901.108765,333.060974 903.151672,333.410217 905.202393,333.705353 
	C906.425720,333.881409 907.661194,333.972504 908.891235,334.101776 
	C908.015137,335.158478 907.348633,336.682770 906.224670,337.186310 
	C902.502258,338.854034 899.058960,338.163300 896.428101,334.876831 
	C894.043640,331.898254 894.140930,326.580933 896.781433,323.795807 
	C899.999268,320.401764 903.633606,320.101990 907.685852,323.281616 
z"/>
<path fill="#253760" opacity="1.000000" stroke="none" 
	d="
M661.837097,334.906799 
	C660.400574,337.943909 659.378479,340.815796 657.694214,343.224762 
	C656.958374,344.277313 654.895569,344.529449 653.373291,344.820770 
	C652.962219,344.899445 652.324341,343.793121 651.790527,343.230713 
	C652.691833,342.452850 653.976318,341.843994 654.410278,340.860046 
	C655.185547,339.102264 656.192017,336.929169 655.770081,335.267975 
	C654.881470,331.769409 653.020081,328.529022 651.806519,325.094818 
	C651.462463,324.121216 651.977478,322.843994 652.098572,321.705994 
	C653.189819,322.386627 654.726746,322.815460 655.282104,323.798706 
	C656.551880,326.046722 657.341675,328.565857 658.668396,331.811371 
	C660.019287,328.504700 660.911377,325.856079 662.200989,323.417694 
	C662.649048,322.570435 664.081177,322.243591 665.063843,321.679047 
	C665.220703,322.694855 665.741516,323.822571 665.469727,324.706573 
	C664.447266,328.031921 663.166626,331.277924 661.837097,334.906799 
z"/>
<path fill="#293A65" opacity="1.000000" stroke="none" 
	d="
M701.895752,330.955383 
	C701.883545,332.226105 702.111633,333.158234 701.812866,333.868866 
	C701.245117,335.219238 700.375793,336.442871 699.631714,337.719177 
	C698.992676,336.376343 698.056274,335.089569 697.789795,333.676514 
	C697.455933,331.905243 698.052612,329.910370 697.526062,328.239380 
	C697.127380,326.973694 695.598694,326.063995 694.572876,324.995850 
	C693.500427,326.073334 691.797974,326.999573 691.494934,328.261780 
	C690.964600,330.470764 691.468140,332.908295 691.174622,335.203552 
	C691.060730,336.094482 689.959351,336.859131 689.307739,337.681305 
	C688.615051,336.883148 687.370911,336.115906 687.324158,335.281525 
	C687.110352,331.466400 687.149536,327.629242 687.299744,323.807922 
	C687.331848,322.991760 688.220215,321.511078 688.688232,321.521332 
	C692.266785,321.599487 696.311340,321.064117 699.237244,322.588531 
	C701.017822,323.516174 701.069824,327.761658 701.895752,330.955383 
z"/>
<path fill="#24355C" opacity="1.000000" stroke="none" 
	d="
M512.533569,319.735657 
	C509.415161,324.446808 506.172791,328.699036 507.187134,334.588287 
	C507.342072,335.487701 506.046783,336.636963 505.422241,337.670685 
	C504.635956,336.832703 503.069427,335.864075 503.184479,335.177032 
	C504.289642,328.577637 500.337616,323.883850 497.495667,318.710693 
	C496.895294,317.617767 497.289825,315.978271 497.225922,314.590637 
	C498.487885,315.330261 500.089722,315.799652 500.938904,316.867523 
	C502.558075,318.903595 503.747894,321.281128 505.361816,323.918732 
	C506.860626,321.400452 507.815552,319.226532 509.294067,317.501312 
	C510.374603,316.240509 512.144043,315.570099 513.606323,314.636475 
	C513.315857,316.238464 513.025330,317.840454 512.533569,319.735657 
z"/>
<path fill="#273A61" opacity="1.000000" stroke="none" 
	d="
M546.044434,321.414246 
	C546.823547,326.474030 547.261108,331.444733 547.504944,336.424896 
	C547.518738,336.705505 545.959412,337.236267 545.095581,337.337463 
	C544.255188,337.435944 543.300964,336.856384 542.511108,337.047424 
	C535.702637,338.694214 533.428589,336.947968 533.321228,329.823364 
	C533.293579,327.990540 533.095520,326.114441 533.419495,324.339203 
	C533.617920,323.252441 534.661072,322.319855 535.324829,321.318024 
	C535.994934,322.284851 537.027832,323.175598 537.250244,324.236298 
	C537.585327,325.834625 536.972046,327.675903 537.463013,329.185974 
	C538.039246,330.958527 539.365723,332.487122 540.366760,334.121552 
	C541.502258,332.375732 543.010620,330.756561 543.659912,328.845551 
	C544.219543,327.198364 543.623840,325.191742 543.897766,323.398834 
	C544.014221,322.636322 545.045593,322.013519 546.044434,321.414246 
z"/>
<path fill="#24355C" opacity="1.000000" stroke="none" 
	d="
M521.272827,337.977325 
	C520.558472,337.856140 520.213501,337.827332 519.922974,337.686310 
	C515.010681,335.301636 512.853394,331.299500 514.409241,326.980927 
	C515.851379,322.978088 518.737976,320.745850 523.153381,321.243927 
	C527.185120,321.698761 530.167053,325.389282 530.141113,329.584473 
	C530.111694,334.336823 527.284058,337.150970 521.272827,337.977325 
M518.193420,330.282196 
	C519.628296,331.567688 520.899658,333.358246 522.575134,333.900848 
	C523.288635,334.131927 525.875610,331.677765 525.794861,330.577087 
	C525.653381,328.648041 524.528931,325.732697 523.071167,325.173920 
	C519.807556,323.922791 518.407959,326.422546 518.193420,330.282196 
z"/>
<path fill="#273A61" opacity="1.000000" stroke="none" 
	d="
M597.939270,321.481079 
	C598.797546,324.413483 599.081238,327.292267 599.865234,330.027740 
	C600.289978,331.509918 601.567383,332.747742 602.460144,334.095795 
	C603.659119,332.784119 605.396301,331.654083 605.916443,330.113251 
	C606.521790,328.319977 605.830811,326.127899 606.159729,324.186371 
	C606.328125,323.191895 607.493652,322.366394 608.208557,321.464539 
	C608.804443,322.321594 609.867920,323.154053 609.914490,324.039978 
	C610.106140,327.690399 610.165649,331.372498 609.846619,335.005463 
	C609.777222,335.796234 608.009521,336.566528 606.901550,337.084503 
	C606.325500,337.353821 605.440002,336.874664 604.766235,337.035248 
	C597.856140,338.682159 595.425903,336.960693 595.640564,329.869171 
	C595.726868,327.018494 596.896606,324.200562 597.939270,321.481079 
z"/>
<path fill="#0178D1" opacity="1.000000" stroke="none" 
	d="
M86.865189,269.369598 
	C94.289566,267.842743 100.729034,265.385956 103.592155,257.214142 
	C104.371017,257.993774 105.515167,259.105499 105.382240,260.034454 
	C104.656281,265.107666 102.492165,269.390717 97.670326,271.866180 
	C94.354408,273.568573 91.043968,275.281586 87.358063,276.995239 
	C86.937141,274.607819 86.889221,272.214996 86.865189,269.369598 
z"/>
<path fill="#1F325B" opacity="1.000000" stroke="none" 
	d="
M891.861328,333.848267 
	C891.932312,335.187927 891.582764,336.417053 891.233215,337.646118 
	C889.154236,336.728119 886.627686,336.247009 885.154480,334.737701 
	C884.180481,333.739777 884.873230,331.236786 884.539490,329.460266 
	C884.153625,327.406250 883.459900,325.410065 882.608521,322.337158 
	C882.631042,322.309601 883.544556,321.257172 884.382996,320.148010 
	C885.178223,319.095978 885.894836,317.984558 886.645996,316.899231 
	C887.270996,317.924927 887.706299,319.165436 888.566284,319.925262 
	C889.812378,321.026123 891.365601,321.779358 893.865967,323.364349 
	C888.565002,324.513092 887.552246,327.842377 888.668335,331.881134 
	C888.892761,332.693359 890.481262,333.128662 891.861328,333.848267 
z"/>
<path fill="#273A61" opacity="1.000000" stroke="none" 
	d="
M743.573486,324.570221 
	C744.801880,323.376038 745.887085,322.523834 746.972229,321.671631 
	C747.061401,322.848663 747.529968,324.159180 747.171265,325.178680 
	C745.911682,328.759216 744.592712,332.355347 742.862793,335.722870 
	C741.379700,338.609833 739.282288,338.621277 737.880859,335.524994 
	C736.246521,331.914215 734.776917,328.218719 733.470337,324.478058 
	C733.204773,323.717682 733.982422,322.592834 734.279053,321.635986 
	C735.195496,322.111481 736.568481,322.357056 736.945007,323.104523 
	C738.199585,325.595551 739.096802,328.266571 740.467346,331.714691 
	C741.665527,328.963898 742.547913,326.938049 743.573486,324.570221 
z"/>
<path fill="#6BBC3D" opacity="1.000000" stroke="none" 
	d="
M998.978882,333.050568 
	C993.987061,335.765411 990.169067,335.292175 989.322388,331.548462 
	C988.798096,329.230591 989.382751,325.531982 990.952576,324.196899 
	C992.440613,322.931366 996.425232,323.011078 998.308044,324.153625 
	C1001.545959,326.118378 1001.525940,329.598328 998.978882,333.050568 
z"/>
<path fill="#F55172" opacity="1.000000" stroke="none" 
	d="
M436.034180,334.133179 
	C431.949249,329.749969 431.996277,324.890137 436.224335,323.455170 
	C438.302307,322.749939 441.888977,323.185730 443.250732,324.595184 
	C444.638336,326.031372 445.002838,329.606201 444.260345,331.690826 
	C443.031464,335.141083 439.750122,335.612946 436.034180,334.133179 
z"/>
<path fill="#6BBC3D" opacity="1.000000" stroke="none" 
	d="
M219.468719,355.075470 
	C218.472702,355.322052 217.476685,355.568604 216.438736,355.551819 
	C216.626495,355.112640 216.866669,354.952545 217.117325,354.808197 
	C217.449753,354.187378 217.782181,353.566589 218.153015,352.582153 
	C220.227997,347.870667 222.264542,343.522766 224.575653,338.961884 
	C227.466949,340.371704 230.083649,341.994537 232.711487,344.202820 
	C228.304642,348.217346 223.886673,351.646393 219.468719,355.075470 
z"/>
<path fill="#293A65" opacity="1.000000" stroke="none" 
	d="
M917.566162,327.318878 
	C917.276794,330.011017 917.380554,332.346436 917.023438,334.609100 
	C916.854797,335.677429 915.802917,336.606354 915.151306,337.598450 
	C914.464966,336.675934 913.249939,335.788330 913.186279,334.824677 
	C912.947510,331.208069 912.934509,327.556152 913.186707,323.941864 
	C913.249329,323.044403 914.487427,321.783081 915.430847,321.495819 
	C916.901489,321.048004 918.611694,321.084076 920.163879,321.307556 
	C921.305847,321.471954 922.357483,322.263794 923.449341,322.776001 
	C922.652588,323.561768 921.934631,324.456635 921.038147,325.104279 
	C920.033142,325.830292 918.866577,326.332642 917.566162,327.318878 
z"/>
<path fill="#253760" opacity="1.000000" stroke="none" 
	d="
M555.320190,336.895508 
	C554.039429,336.457794 552.369080,335.860474 552.164978,334.938629 
	C551.711426,332.889496 551.969666,330.677765 551.977783,328.532471 
	C552.004456,321.475220 553.208862,320.333374 559.989075,321.209564 
	C560.805298,321.315033 561.746338,322.096863 562.182556,322.830841 
	C562.412476,323.217651 561.705078,324.776520 561.372070,324.792572 
	C554.145081,325.140808 556.338562,330.607574 555.916077,334.648102 
	C555.847961,335.298981 555.704529,335.941986 555.320190,336.895508 
z"/>
<path fill="#293A65" opacity="1.000000" stroke="none" 
	d="
M772.646606,322.511810 
	C773.281311,323.146698 773.540283,323.827271 773.903442,324.764435 
	C773.309509,327.955811 772.732971,330.927429 771.860352,333.809387 
	C771.444275,335.183685 770.465393,336.387604 769.741516,337.668732 
	C769.090210,336.381073 768.010376,335.136597 767.875305,333.796844 
	C767.578247,330.851501 767.789429,327.857422 767.736511,324.884247 
	C767.666992,320.976593 769.385498,320.654846 772.646606,322.511810 
z"/>
<path fill="#273A61" opacity="1.000000" stroke="none" 
	d="
M683.015869,328.154602 
	C683.019287,330.590210 683.291504,332.630371 682.907104,334.538300 
	C682.674011,335.695190 681.425049,336.647400 680.632446,337.691559 
	C680.021484,336.669312 678.965210,335.681274 678.883545,334.618317 
	C678.643433,331.494415 678.585632,328.321228 678.881958,325.207886 
	C679.008606,323.878235 680.190186,322.648987 680.892395,321.374115 
	C681.584900,322.657104 682.395813,323.893860 682.922058,325.241760 
	C683.203857,325.963440 682.995239,326.876617 683.015869,328.154602 
z"/>
<path fill="#F4F7FA" opacity="1.000000" stroke="none" 
	d="
M216.843445,354.532654 
	C216.866669,354.952545 216.626495,355.112640 216.211670,355.406586 
	C212.386322,353.970032 208.578812,352.718079 205.132004,350.813416 
	C173.941650,333.577789 141.067566,325.537231 105.400352,331.947449 
	C97.739792,333.324219 95.513710,331.429138 95.143135,323.688965 
	C115.893112,316.878143 136.731155,316.910431 157.686722,322.497925 
	C177.997650,327.913574 195.922241,337.806885 212.155991,350.982239 
	C213.577057,352.135620 215.096069,353.168335 216.843445,354.532654 
z"/>
<path fill="#F7F8FA" opacity="1.000000" stroke="none" 
	d="
M87.278320,244.973770 
	C85.504066,247.549728 83.624214,249.621582 81.424767,252.045670 
	C75.338303,248.700104 73.020912,243.131653 72.730598,236.926437 
	C72.218330,225.977051 76.988701,217.466263 86.565063,211.431900 
	C87.012115,222.411163 87.092422,233.440414 87.278320,244.973770 
z"/>
<path fill="#F7F8F6" opacity="1.000000" stroke="none" 
	d="
M219.891388,355.216980 
	C223.886673,351.646393 228.304642,348.217346 232.889313,344.507080 
	C248.911270,333.916534 265.696533,325.665955 284.257629,321.486420 
	C303.091980,317.245270 321.827362,317.068451 340.603943,323.573090 
	C340.035278,331.530487 338.015594,333.384216 330.152863,331.886841 
	C308.088531,327.684937 286.578064,330.134155 264.608032,336.725647 
	C255.187561,340.581818 246.468353,344.223267 237.749146,347.864716 
	C231.937454,350.362640 226.125748,352.860565 219.891388,355.216980 
z"/>
<path fill="#F7F7F9" opacity="1.000000" stroke="none" 
	d="
M349.087982,212.381592 
	C358.952698,218.078598 363.951324,228.661057 362.047028,239.370255 
	C361.103699,244.675461 358.607300,248.975525 353.325195,251.841187 
	C351.830322,250.154694 350.323944,248.455246 348.650024,246.427902 
	C348.661987,235.017868 348.841522,223.935730 349.087982,212.381592 
z"/>
<path fill="#FEF9FA" opacity="1.000000" stroke="none" 
	d="
M757.152222,245.988068 
	C757.146973,242.221664 757.146973,238.942657 757.146973,235.263580 
	C762.414307,235.263580 767.213135,234.817932 771.893494,235.372650 
	C778.216980,236.122131 781.438049,240.264297 781.257690,246.198471 
	C781.084534,251.895767 777.345398,255.573700 770.836548,255.978210 
	C766.561707,256.243866 762.257019,256.028381 757.157532,256.028381 
	C757.157532,252.626083 757.157532,249.550766 757.152222,245.988068 
z"/>
<path fill="#FEF9FA" opacity="1.000000" stroke="none" 
	d="
M760.401428,198.213959 
	C764.142212,198.378311 767.510620,198.199554 770.712891,198.844971 
	C775.179565,199.745224 777.471680,202.964279 777.368896,207.489517 
	C777.266479,211.996490 775.463562,215.840225 770.680237,216.776230 
	C766.534973,217.587341 762.220215,217.531815 757.235779,217.916840 
	C757.235779,211.594513 757.129944,206.028503 757.356689,200.476089 
	C757.388550,199.696167 759.048523,198.982758 760.401428,198.213959 
z"/>
<path fill="#FAFCF8" opacity="1.000000" stroke="none" 
	d="
M880.765259,249.883301 
	C880.723694,246.394821 880.401184,243.223846 880.958984,240.216095 
	C881.756165,235.917542 884.615967,233.138123 889.087402,232.681702 
	C893.784912,232.202194 897.453308,234.493713 898.813049,238.768936 
	C899.863342,242.071228 900.067200,245.990723 899.415649,249.400467 
	C898.553223,253.913834 895.360046,257.121552 890.434631,257.361237 
	C885.519775,257.600403 882.364868,254.929245 880.765259,249.883301 
z"/>
<path fill="#F7FBFE" opacity="1.000000" stroke="none" 
	d="
M947.807129,233.641388 
	C954.545715,231.399460 960.100342,234.134033 961.773254,240.163406 
	C963.904541,247.844711 960.556396,255.449768 954.364014,256.993225 
	C949.959900,258.090942 945.804382,256.062073 943.668457,251.771378 
	C940.636780,245.681534 942.181946,238.430923 947.807129,233.641388 
z"/>
<path fill="#F7F8FA" opacity="1.000000" stroke="none" 
	d="
M667.176208,254.792847 
	C662.758118,249.858765 662.874512,244.387573 664.562683,238.989349 
	C665.908875,234.685074 669.270508,232.056244 673.946777,232.067474 
	C678.582703,232.078613 682.179565,234.498062 683.274475,238.945099 
	C684.118774,242.374313 684.376160,246.316269 683.562134,249.710709 
	C681.741333,257.303375 674.448425,259.493286 667.176208,254.792847 
z"/>
<path fill="#F7F7F9" opacity="1.000000" stroke="none" 
	d="
M623.936340,247.498764 
	C621.730713,254.727692 618.055420,257.959778 612.932678,257.545929 
	C608.092957,257.154999 604.576416,253.639053 603.438416,248.053299 
	C602.120422,241.584030 604.662048,235.365295 609.588501,233.005295 
	C614.528198,230.638916 620.893005,232.932831 622.834167,238.282974 
	C623.819397,240.998383 623.640503,244.136169 623.936340,247.498764 
z"/>
<path fill="#F89E12" opacity="1.000000" stroke="none" 
	d="
M237.863068,348.260803 
	C246.468353,344.223267 255.187561,340.581818 264.270874,336.916016 
	C265.123505,339.591339 265.612030,342.291016 266.150848,345.384216 
	C257.497253,348.856354 248.793365,351.934875 239.711548,355.017731 
	C238.881393,352.900330 238.429184,350.778625 237.863068,348.260803 
z"/>
<path fill="#F7F8F6" opacity="1.000000" stroke="none" 
	d="
M248.120941,376.820221 
	C250.199036,373.403137 252.688232,370.025146 255.334244,366.434357 
	C259.745758,369.708191 263.636810,372.595764 267.731506,375.751648 
	C264.314240,375.682037 260.683350,375.006531 257.075623,375.113495 
	C254.213028,375.198425 251.378845,376.241608 248.120941,376.820221 
z"/>
<path fill="#F7F8F6" opacity="1.000000" stroke="none" 
	d="
M246.843903,377.840271 
	C246.783478,377.577240 247.033096,377.237122 247.598801,376.843872 
	C247.661240,377.114899 247.407593,377.439026 246.843903,377.840271 
z"/>
<path fill="#E9EAEE" opacity="1.000000" stroke="none" 
	d="
M177.636139,225.649338 
	C177.825378,227.991623 178.158005,230.224701 177.466415,232.074921 
	C177.196503,232.797012 174.194016,233.349533 173.206207,232.737152 
	C171.955200,231.961594 170.632812,229.780746 170.848907,228.450989 
	C171.440811,224.808640 173.853455,223.564194 177.636139,225.649338 
z"/>
<path fill="#E9EAEE" opacity="1.000000" stroke="none" 
	d="
M265.623260,229.784302 
	C263.660461,231.084900 261.861481,232.464508 259.907013,232.739777 
	C259.145416,232.847031 257.351959,230.508972 257.271851,229.208176 
	C257.190857,227.892685 258.332092,226.045670 259.496307,225.202484 
	C262.117035,223.304367 264.598236,225.100784 265.623260,229.784302 
z"/>
<path fill="#E0E4EC" opacity="1.000000" stroke="none" 
	d="
M579.050720,332.717834 
	C578.958923,330.814392 578.958923,329.338409 578.958923,328.070068 
	C579.537415,327.674652 579.846191,327.294861 580.061890,327.341949 
	C582.525391,327.879395 585.017273,328.365082 587.372070,329.220825 
	C587.654114,329.323303 587.333984,332.551636 587.016724,332.602325 
	C584.429199,333.015839 581.775818,333.018036 579.050720,332.717834 
z"/>
<path fill="#E9EAEE" opacity="1.000000" stroke="none" 
	d="
M582.668213,323.982605 
	C577.424255,324.415497 579.339600,320.989716 578.981689,317.362762 
	C581.911133,318.310699 584.265076,319.072418 586.619080,319.834167 
	C585.442139,321.214386 584.265137,322.594604 582.668213,323.982605 
z"/>
<path fill="#E9EAEE" opacity="1.000000" stroke="none" 
	d="
M624.850952,327.403259 
	C624.189148,329.812347 623.622986,331.947815 622.510925,333.745514 
	C622.241760,334.180573 619.436768,333.907776 619.072876,333.252411 
	C618.191223,331.664825 617.431824,329.539307 617.756714,327.848389 
	C618.460754,324.183563 621.257629,323.951263 624.850952,327.403259 
z"/>
<path fill="#E9EAEE" opacity="1.000000" stroke="none" 
	d="
M637.028198,326.889526 
	C638.924927,326.181122 640.833679,325.226898 642.317566,325.676117 
	C643.258301,325.960876 644.328613,328.566833 643.978577,329.717316 
	C643.462524,331.413544 641.732849,332.740540 640.520020,334.224762 
	C639.178711,332.859619 637.666870,331.614044 636.583130,330.068329 
	C636.170044,329.479309 636.739014,328.201660 637.028198,326.889526 
z"/>
<path fill="#E9EAEE" opacity="1.000000" stroke="none" 
	d="
M875.892700,331.569153 
	C874.288574,334.487152 871.776123,335.333618 870.134766,333.130493 
	C868.959839,331.553406 869.278503,328.608185 869.574219,326.357941 
	C869.655090,325.742249 873.048462,324.797058 873.231812,325.083801 
	C874.422791,326.945953 875.147217,329.106476 875.892700,331.569153 
z"/>
<path fill="#E9EAEE" opacity="1.000000" stroke="none" 
	d="
M518.174561,329.888031 
	C518.407959,326.422546 519.807556,323.922791 523.071167,325.173920 
	C524.528931,325.732697 525.653381,328.648041 525.794861,330.577087 
	C525.875610,331.677765 523.288635,334.131927 522.575134,333.900848 
	C520.899658,333.358246 519.628296,331.567688 518.174561,329.888031 
z"/>
</svg>